<?xml version="1.0" encoding="UTF-8" standalone="no"?>
<!-- Created with Inkscape (http://www.inkscape.org/) -->

<svg
   xmlns:dc="http://purl.org/dc/elements/1.1/"
   xmlns:cc="http://creativecommons.org/ns#"
   xmlns:rdf="http://www.w3.org/1999/02/22-rdf-syntax-ns#"
   xmlns:svg="http://www.w3.org/2000/svg"
   xmlns="http://www.w3.org/2000/svg"
   xmlns:xlink="http://www.w3.org/1999/xlink"
   xmlns:sodipodi="http://sodipodi.sourceforge.net/DTD/sodipodi-0.dtd"
   xmlns:inkscape="http://www.inkscape.org/namespaces/inkscape"
   width="80"
   height="80"
   id="svg2987"
   version="1.1"
   inkscape:version="0.48.4 r9939"
   sodipodi:docname="default-32-3.svg">
  <defs
     id="defs2989">
    <linearGradient
       id="linearGradient3939">
      <stop
         style="stop-color:#c1a3fe;stop-opacity:1;"
         offset="0"
         id="stop3941" />
      <stop
         style="stop-color:#c1a3fe;stop-opacity:0;"
         offset="1"
         id="stop3943" />
    </linearGradient>
    <clipPath
       clipPathUnits="userSpaceOnUse"
       id="clipPath3871">
      <path
         style="fill:#f07eff;fill-opacity:0.80784314;stroke-width:0.1;stroke-miterlimit:4;stroke-dashoffset:0"
         d="m 8.1655088,38.383062 c 0.5437842,-5.482253 6.6446902,-9.639507 13.6267562,-9.285487 6.982065,0.35402 12.201323,5.085254 11.657538,10.567506 -0.543784,5.482253 -6.64469,9.639507 -13.626755,9.285487 C 12.840982,48.596548 7.6217245,43.865315 8.1655088,38.383062 z"
         id="path3873"
         inkscape:connector-curvature="0" />
    </clipPath>
    <clipPath
       clipPathUnits="userSpaceOnUse"
       id="clipPath3875">
      <path
         style="fill:#f07eff;fill-opacity:0.80784314;stroke-width:0.1;stroke-miterlimit:4;stroke-dashoffset:0"
         d="M 38.838669,27.273646 C 37.974741,38.613136 28.282034,47.212 17.189401,46.479746 6.0967689,45.747491 -2.1952346,35.961408 -1.3313069,24.621918 -0.46737939,13.282429 9.2253276,4.6835653 20.31796,5.4158198 31.410593,6.1480743 39.702596,15.934157 38.838669,27.273646 z"
         id="path3877"
         inkscape:connector-curvature="0" />
    </clipPath>
    <clipPath
       clipPathUnits="userSpaceOnUse"
       id="clipPath3973">
      <path
         style="fill:#c1a3fe;fill-opacity:0.53424659;stroke-width:0.1;stroke-miterlimit:4;stroke-dashoffset:0"
         d="m 26.749877,14.410072 c 0,3.888461 -4.364613,7.040681 -9.748635,7.040681 -5.384023,0 -9.7486356,-3.15222 -9.7486356,-7.040681 0,-3.88846 4.3646126,-7.0406806 9.7486356,-7.0406806 5.384022,0 9.748635,3.1522206 9.748635,7.0406806 z"
         id="path3975"
         inkscape:connector-curvature="0" />
    </clipPath>
    <clipPath
       clipPathUnits="userSpaceOnUse"
       id="clipPath3977">
      <path
         style="fill:#c1a3fe;fill-opacity:0.53424659;stroke-width:0.1;stroke-miterlimit:4;stroke-dashoffset:0"
         d="m 11.145894,42.378428 c 0,-4.735813 4.325718,-8.574947 9.661761,-8.574947 5.336043,0 9.661761,3.839134 9.661761,8.574947 0,4.735811 -4.325718,8.574945 -9.661761,8.574945 -5.336043,0 -9.661761,-3.839134 -9.661761,-8.574945 z"
         id="path3979"
         inkscape:connector-curvature="0" />
    </clipPath>
    <clipPath
       clipPathUnits="userSpaceOnUse"
       id="clipPath3981">
      <path
         style="fill:#c1a3fe;fill-opacity:0.53424659;stroke-width:0.1;stroke-miterlimit:4;stroke-dashoffset:0"
         d="m 38.900494,21.223912 c 0,11.363518 -9.020036,20.575468 -20.146811,20.575468 -11.1267775,0 -20.1468119,-9.21195 -20.1468119,-20.575468 0,-11.3635143 9.0200344,-20.57546583 20.1468119,-20.57546583 11.126775,0 20.146811,9.21195153 20.146811,20.57546583 z"
         id="path3983"
         inkscape:connector-curvature="0" />
    </clipPath>
    <clipPath
       clipPathUnits="userSpaceOnUse"
       id="clipPath3973-9">
      <path
         style="fill:#c1a3fe;fill-opacity:0.53424659;stroke-width:0.1;stroke-miterlimit:4;stroke-dashoffset:0"
         d="m 26.749877,14.410072 c 0,3.888461 -4.364613,7.040681 -9.748635,7.040681 -5.384023,0 -9.7486356,-3.15222 -9.7486356,-7.040681 0,-3.88846 4.3646126,-7.0406806 9.7486356,-7.0406806 5.384022,0 9.748635,3.1522206 9.748635,7.0406806 z"
         id="path3975-3"
         inkscape:connector-curvature="0" />
    </clipPath>
    <clipPath
       clipPathUnits="userSpaceOnUse"
       id="clipPath3981-2">
      <path
         style="fill:#c1a3fe;fill-opacity:0.53424659;stroke-width:0.1;stroke-miterlimit:4;stroke-dashoffset:0"
         d="m 38.900494,21.223912 c 0,11.363518 -9.020036,20.575468 -20.146811,20.575468 -11.1267775,0 -20.1468119,-9.21195 -20.1468119,-20.575468 0,-11.3635143 9.0200344,-20.57546583 20.1468119,-20.57546583 11.126775,0 20.146811,9.21195153 20.146811,20.57546583 z"
         id="path3983-6"
         inkscape:connector-curvature="0" />
    </clipPath>
    <clipPath
       clipPathUnits="userSpaceOnUse"
       id="clipPath3081">
      <path
         inkscape:connector-curvature="0"
         id="path3083"
         d="m 37.582128,18.277975 c -0.06611,4.418278 -8.005232,8 -17.732526,8 -9.727295,0 -17.5592327,-3.581722 -17.4931233,-8 0.066109,-4.418277 8.0052313,-8 17.7325273,-8 9.727293,0 17.559232,3.581723 17.493122,8 z"
         style="fill:#c1a3fe;fill-opacity:0.53424659;stroke-width:0.1;stroke-miterlimit:4;stroke-dashoffset:0" />
    </clipPath>
    <clipPath
       clipPathUnits="userSpaceOnUse"
       id="clipPath3085">
      <path
         inkscape:connector-curvature="0"
         id="path3087"
         d="m 32.000001,16 c 0,8.836556 -7.163445,16 -16,16 C 7.163444,32 0,24.836556 0,16 0,7.163446 7.163444,7.4999999e-7 16.000001,7.4999999e-7 c 8.836555,0 16,7.16344525000001 16,15.99999925000001 z"
         style="fill:#c1a3fe;fill-opacity:0.53424659;stroke-width:0.1;stroke-miterlimit:4;stroke-dashoffset:0" />
    </clipPath>
    <clipPath
       clipPathUnits="userSpaceOnUse"
       id="clipPath3089">
      <path
         inkscape:connector-curvature="0"
         id="path3091"
         d="m 32.000001,16 c 0,8.836556 -7.163445,16 -16,16 C 7.163444,32 0,24.836556 0,16 0,7.163446 7.163444,7.4999999e-7 16.000001,7.4999999e-7 c 8.836555,0 16,7.16344525000001 16,15.99999925000001 z"
         style="fill:#c1a3fe;fill-opacity:0.53424659;stroke-width:0.1;stroke-miterlimit:4;stroke-dashoffset:0" />
    </clipPath>
    <clipPath
       clipPathUnits="userSpaceOnUse"
       id="clipPath3106">
      <path
         transform="matrix(0.90842898,0,0.01359256,2,-2.389138,-20.55595)"
         style="fill:#008000;fill-opacity:0.80784314;stroke-width:0.1;stroke-miterlimit:4;stroke-dashoffset:0"
         d="m 31.741931,40.382885 c 0,13.264982 -5.418867,24.018375 -12.103377,24.018375 -6.684511,0 -12.1033777,-10.753393 -12.1033777,-24.018375 0,-13.264982 5.4188667,-24.018375 12.1033777,-24.018375 6.68451,0 12.103377,10.753393 12.103377,24.018375 z"
         id="path3108"
         clip-path="url(#clipPath3081)"
         inkscape:connector-curvature="0" />
    </clipPath>
    <linearGradient
       inkscape:collect="always"
       xlink:href="#linearGradient3939"
       id="linearGradient3931"
       x1="-18.741177"
       y1="31.304964"
       x2="-21.340818"
       y2="42.794289"
       gradientUnits="userSpaceOnUse" />
    <linearGradient
       inkscape:collect="always"
       xlink:href="#linearGradient3939"
       id="linearGradient3021"
       gradientUnits="userSpaceOnUse"
       x1="-18.741177"
       y1="31.304964"
       x2="-21.340818"
       y2="42.794289" />
    <linearGradient
       inkscape:collect="always"
       xlink:href="#linearGradient3939"
       id="linearGradient3025"
       gradientUnits="userSpaceOnUse"
       x1="-18.741177"
       y1="31.304964"
       x2="-21.340818"
       y2="42.794289" />
    <linearGradient
       inkscape:collect="always"
       xlink:href="#linearGradient3939"
       id="linearGradient3027"
       gradientUnits="userSpaceOnUse"
       x1="-18.741177"
       y1="31.304964"
       x2="-21.340818"
       y2="42.794289" />
    <clipPath
       clipPathUnits="userSpaceOnUse"
       id="clipPath3052">
      <path
         style="fill:#e6e6e6;fill-opacity:0.80784314;stroke-width:0.1;stroke-miterlimit:4;stroke-dashoffset:0"
         d="M 5.9455354,65.287154 C 2.8651222,47.189573 4.8694907,24.380049 10.422418,14.340655 15.975345,4.3012611 22.974051,10.833711 26.054465,28.931291 29.134878,47.028871 27.130509,69.838396 21.577582,79.87779 16.030945,89.905809 9.0402926,83.400619 5.9544852,65.339635"
         id="path3054"
         inkscape:connector-curvature="0" />
    </clipPath>
    <linearGradient
       inkscape:collect="always"
       xlink:href="#linearGradient3939"
       id="linearGradient3076"
       gradientUnits="userSpaceOnUse"
       x1="-20.206425"
       y1="39.164021"
       x2="-21.340818"
       y2="42.794289" />
    <linearGradient
       inkscape:collect="always"
       xlink:href="#linearGradient3939"
       id="linearGradient3078"
       gradientUnits="userSpaceOnUse"
       x1="-18.741177"
       y1="31.304964"
       x2="-21.340818"
       y2="42.794289" />
    <mask
       maskUnits="userSpaceOnUse"
       id="mask3123">
      <path
         style="fill:#e6e6e6;fill-opacity:0.80784314;stroke-width:0.1;stroke-miterlimit:4;stroke-dasharray:none;stroke-dashoffset:0"
         d="m 15.857315,-0.008176 c -2.579436,0.0228 -5.210685,0.69193897 -7.625,2.03125 -7.72581205,4.285796 -10.504542,13.992932 -6.21875,21.71875 l 0,0.03125 c 4.293297,7.710197 14.03294,10.499691 21.75,6.21875 7.725812,-4.285796 10.504543,-14.024182 6.21875,-21.7499998 -2.946482,-5.3115002 -8.45024,-8.3001662 -14.125,-8.2500002 z m 0.15625,3.53125 c 2.761424,0 5,2.238576 5,5.0000002 0,2.7614238 -2.238576,4.9999998 -5,4.9999998 -2.761424,0 -5.000001,-2.238576 -5.000001,-4.9999998 0,-2.7614242 2.238577,-5.0000002 5.000001,-5.0000002 z"
         id="path3125"
         inkscape:connector-curvature="0" />
    </mask>
  </defs>
  <sodipodi:namedview
     id="base"
     pagecolor="#ffffff"
     bordercolor="#666666"
     borderopacity="1.0"
     inkscape:pageopacity="0.0"
     inkscape:pageshadow="2"
     inkscape:zoom="3.7536308"
     inkscape:cx="9.6597278"
     inkscape:cy="43.63554"
     inkscape:current-layer="layer1"
     showgrid="true"
     inkscape:grid-bbox="true"
     inkscape:document-units="px"
     inkscape:window-width="1920"
     inkscape:window-height="1025"
     inkscape:window-x="0"
     inkscape:window-y="27"
     inkscape:window-maximized="1" />
  <metadata
     id="metadata2992">
    <rdf:RDF>
      <cc:Work
         rdf:about="">
        <dc:format>image/svg+xml</dc:format>
        <dc:type
           rdf:resource="http://purl.org/dc/dcmitype/StillImage" />
        <dc:title></dc:title>
      </cc:Work>
    </rdf:RDF>
  </metadata>
  <g
     inkscape:groupmode="layer"
     id="layer2"
     inkscape:label="Layer 2"
     transform="translate(0,48)" />
  <g
     id="layer1"
     inkscape:label="Layer 1"
     inkscape:groupmode="layer"
     transform="translate(0,48)">
    <path
       transform="matrix(2.5000001,0,0,2.5,0.9418971,-52.870239)"
       clip-path="url(#clipPath3089)"
       inkscape:connector-curvature="0"
       id="path3056"
       d="m 20.623241,9.0470954 c 0,2.7614236 -2.238576,4.9999996 -5,4.9999996 -2.761424,0 -5,-2.238576 -5,-4.9999996 0,-2.7614239 2.238576,-5.0000002 5,-5.0000002 2.761424,0 5,2.2385763 5,5.0000002 z"
       style="fill:#c1a3fe;fill-opacity:1" />
    <path
       style="fill:#c1a3fe;fill-opacity:1;stroke-width:0.1;stroke-miterlimit:4;stroke-dasharray:none;stroke-dashoffset:0"
       d="M 34.81663,31.738598 C 30.50317,31.131555 26.345315,29.810335 22.33148,27.771253 20.195866,26.686335 16.831581,24.547028 15.397815,23.36222 L 15,23.033482 15.281379,21.311717 c 0.429567,-2.62852 2.008688,-10.090335 2.77455,-13.1105722 2.022639,-7.97642768 4.108513,-13.9940178 6.810527,-19.6478658 1.396932,-2.923015 3.803859,-6.972527 5.041657,-8.482292 l 0.468125,-0.570988 0.885285,0.862338 c 2.25185,2.193487 4.83893,3.37231 7.91234,3.605312 3.418648,0.259188 6.862333,-0.997495 9.458578,-3.451642 l 0.995482,-0.941008 0.444533,0.533488 c 2.36062,2.832982 5.430365,8.6106 7.535487,14.182665 2.830725,7.4926801 5.416983,17.288458 7.037231,26.654403 l 0.354827,2.051107 -0.386022,0.340281 c -1.182955,1.04279 -4.720231,3.307927 -6.914258,4.427635 -4.090885,2.087765 -8.216003,3.382712 -12.710833,3.990157 -2.469977,0.3338 -7.745193,0.32543 -10.172258,-0.01625 l 0,0 z"
       id="path3907"
       inkscape:connector-curvature="0" />
  </g>
</svg>
