<?xml version="1.0" encoding="UTF-8" standalone="no"?>
<!-- Created with Inkscape (http://www.inkscape.org/) -->

<svg
   xmlns:dc="http://purl.org/dc/elements/1.1/"
   xmlns:cc="http://creativecommons.org/ns#"
   xmlns:rdf="http://www.w3.org/1999/02/22-rdf-syntax-ns#"
   xmlns:svg="http://www.w3.org/2000/svg"
   xmlns="http://www.w3.org/2000/svg"
   xmlns:xlink="http://www.w3.org/1999/xlink"
   xmlns:sodipodi="http://sodipodi.sourceforge.net/DTD/sodipodi-0.dtd"
   xmlns:inkscape="http://www.inkscape.org/namespaces/inkscape"
   width="26"
   height="26"
   id="svg2987"
   version="1.1"
   inkscape:version="0.48.4 r9939"
   sodipodi:docname="group-pic.svg">
  <defs
     id="defs2989">
    <linearGradient
       id="linearGradient3939">
      <stop
         style="stop-color:#c1a3fe;stop-opacity:1;"
         offset="0"
         id="stop3941" />
      <stop
         style="stop-color:#c1a3fe;stop-opacity:0;"
         offset="1"
         id="stop3943" />
    </linearGradient>
    <clipPath
       clipPathUnits="userSpaceOnUse"
       id="clipPath3871">
      <path
         style="fill:#f07eff;fill-opacity:0.80784314;stroke-width:0.1;stroke-miterlimit:4;stroke-dashoffset:0"
         d="m 8.1655088,38.383062 c 0.5437842,-5.482253 6.6446902,-9.639507 13.6267562,-9.285487 6.982065,0.35402 12.201323,5.085254 11.657538,10.567506 -0.543784,5.482253 -6.64469,9.639507 -13.626755,9.285487 C 12.840982,48.596548 7.6217245,43.865315 8.1655088,38.383062 z"
         id="path3873"
         inkscape:connector-curvature="0" />
    </clipPath>
    <clipPath
       clipPathUnits="userSpaceOnUse"
       id="clipPath3875">
      <path
         style="fill:#f07eff;fill-opacity:0.80784314;stroke-width:0.1;stroke-miterlimit:4;stroke-dashoffset:0"
         d="M 38.838669,27.273646 C 37.974741,38.613136 28.282034,47.212 17.189401,46.479746 6.0967689,45.747491 -2.1952346,35.961408 -1.3313069,24.621918 -0.46737939,13.282429 9.2253276,4.6835653 20.31796,5.4158198 31.410593,6.1480743 39.702596,15.934157 38.838669,27.273646 z"
         id="path3877"
         inkscape:connector-curvature="0" />
    </clipPath>
    <clipPath
       clipPathUnits="userSpaceOnUse"
       id="clipPath3973">
      <path
         style="fill:#c1a3fe;fill-opacity:0.53424659;stroke-width:0.1;stroke-miterlimit:4;stroke-dashoffset:0"
         d="m 26.749877,14.410072 c 0,3.888461 -4.364613,7.040681 -9.748635,7.040681 -5.384023,0 -9.7486356,-3.15222 -9.7486356,-7.040681 0,-3.88846 4.3646126,-7.0406806 9.7486356,-7.0406806 5.384022,0 9.748635,3.1522206 9.748635,7.0406806 z"
         id="path3975"
         inkscape:connector-curvature="0" />
    </clipPath>
    <clipPath
       clipPathUnits="userSpaceOnUse"
       id="clipPath3977">
      <path
         style="fill:#c1a3fe;fill-opacity:0.53424659;stroke-width:0.1;stroke-miterlimit:4;stroke-dashoffset:0"
         d="m 11.145894,42.378428 c 0,-4.735813 4.325718,-8.574947 9.661761,-8.574947 5.336043,0 9.661761,3.839134 9.661761,8.574947 0,4.735811 -4.325718,8.574945 -9.661761,8.574945 -5.336043,0 -9.661761,-3.839134 -9.661761,-8.574945 z"
         id="path3979"
         inkscape:connector-curvature="0" />
    </clipPath>
    <clipPath
       clipPathUnits="userSpaceOnUse"
       id="clipPath3981">
      <path
         style="fill:#c1a3fe;fill-opacity:0.53424659;stroke-width:0.1;stroke-miterlimit:4;stroke-dashoffset:0"
         d="m 38.900494,21.223912 c 0,11.363518 -9.020036,20.575468 -20.146811,20.575468 -11.1267775,0 -20.1468119,-9.21195 -20.1468119,-20.575468 0,-11.3635143 9.0200344,-20.57546583 20.1468119,-20.57546583 11.126775,0 20.146811,9.21195153 20.146811,20.57546583 z"
         id="path3983"
         inkscape:connector-curvature="0" />
    </clipPath>
    <clipPath
       clipPathUnits="userSpaceOnUse"
       id="clipPath3973-9">
      <path
         style="fill:#c1a3fe;fill-opacity:0.53424659;stroke-width:0.1;stroke-miterlimit:4;stroke-dashoffset:0"
         d="m 26.749877,14.410072 c 0,3.888461 -4.364613,7.040681 -9.748635,7.040681 -5.384023,0 -9.7486356,-3.15222 -9.7486356,-7.040681 0,-3.88846 4.3646126,-7.0406806 9.7486356,-7.0406806 5.384022,0 9.748635,3.1522206 9.748635,7.0406806 z"
         id="path3975-3"
         inkscape:connector-curvature="0" />
    </clipPath>
    <clipPath
       clipPathUnits="userSpaceOnUse"
       id="clipPath3981-2">
      <path
         style="fill:#c1a3fe;fill-opacity:0.53424659;stroke-width:0.1;stroke-miterlimit:4;stroke-dashoffset:0"
         d="m 38.900494,21.223912 c 0,11.363518 -9.020036,20.575468 -20.146811,20.575468 -11.1267775,0 -20.1468119,-9.21195 -20.1468119,-20.575468 0,-11.3635143 9.0200344,-20.57546583 20.1468119,-20.57546583 11.126775,0 20.146811,9.21195153 20.146811,20.57546583 z"
         id="path3983-6"
         inkscape:connector-curvature="0" />
    </clipPath>
    <clipPath
       clipPathUnits="userSpaceOnUse"
       id="clipPath3081">
      <path
         inkscape:connector-curvature="0"
         id="path3083"
         d="m 37.582128,18.277975 c -0.06611,4.418278 -8.005232,8 -17.732526,8 -9.727295,0 -17.5592327,-3.581722 -17.4931233,-8 0.066109,-4.418277 8.0052313,-8 17.7325273,-8 9.727293,0 17.559232,3.581723 17.493122,8 z"
         style="fill:#c1a3fe;fill-opacity:0.53424659;stroke-width:0.1;stroke-miterlimit:4;stroke-dashoffset:0" />
    </clipPath>
    <clipPath
       clipPathUnits="userSpaceOnUse"
       id="clipPath3085">
      <path
         inkscape:connector-curvature="0"
         id="path3087"
         d="m 32.000001,16 c 0,8.836556 -7.163445,16 -16,16 C 7.163444,32 0,24.836556 0,16 0,7.163446 7.163444,7.4999999e-7 16.000001,7.4999999e-7 c 8.836555,0 16,7.16344525000001 16,15.99999925000001 z"
         style="fill:#c1a3fe;fill-opacity:0.53424659;stroke-width:0.1;stroke-miterlimit:4;stroke-dashoffset:0" />
    </clipPath>
    <clipPath
       clipPathUnits="userSpaceOnUse"
       id="clipPath3089">
      <path
         inkscape:connector-curvature="0"
         id="path3091"
         d="m 32.000001,16 c 0,8.836556 -7.163445,16 -16,16 C 7.163444,32 0,24.836556 0,16 0,7.163446 7.163444,7.4999999e-7 16.000001,7.4999999e-7 c 8.836555,0 16,7.16344525000001 16,15.99999925000001 z"
         style="fill:#c1a3fe;fill-opacity:0.53424659;stroke-width:0.1;stroke-miterlimit:4;stroke-dashoffset:0" />
    </clipPath>
    <clipPath
       clipPathUnits="userSpaceOnUse"
       id="clipPath3106">
      <path
         transform="matrix(0.90842898,0,0.01359256,2,-2.389138,-20.55595)"
         style="fill:#008000;fill-opacity:0.80784314;stroke-width:0.1;stroke-miterlimit:4;stroke-dashoffset:0"
         d="m 31.741931,40.382885 c 0,13.264982 -5.418867,24.018375 -12.103377,24.018375 -6.684511,0 -12.1033777,-10.753393 -12.1033777,-24.018375 0,-13.264982 5.4188667,-24.018375 12.1033777,-24.018375 6.68451,0 12.103377,10.753393 12.103377,24.018375 z"
         id="path3108"
         clip-path="url(#clipPath3081)"
         inkscape:connector-curvature="0" />
    </clipPath>
    <linearGradient
       inkscape:collect="always"
       xlink:href="#linearGradient3939"
       id="linearGradient3931"
       x1="-18.741177"
       y1="31.304964"
       x2="-21.340818"
       y2="42.794289"
       gradientUnits="userSpaceOnUse" />
    <linearGradient
       inkscape:collect="always"
       xlink:href="#linearGradient3939"
       id="linearGradient3013"
       gradientUnits="userSpaceOnUse"
       x1="-18.741177"
       y1="31.304964"
       x2="-21.340818"
       y2="42.794289" />
    <linearGradient
       inkscape:collect="always"
       xlink:href="#linearGradient3939"
       id="linearGradient3017"
       gradientUnits="userSpaceOnUse"
       x1="-18.741177"
       y1="31.304964"
       x2="-21.340818"
       y2="42.794289" />
    <clipPath
       clipPathUnits="userSpaceOnUse"
       id="clipPath3949">
      <path
         style="fill:#e6e6e6;fill-opacity:1;stroke:#000000;stroke-width:0;stroke-miterlimit:0.1;stroke-opacity:1;stroke-dashoffset:0"
         d="m -10.003004,3.3273849 0,22.9041781 38.530997,0 0,-22.9041781 -38.530997,0 z M 3.856104,5.1677206 c 2.6143242,-0.013384 5.170416,0.7632778 6.52784,2.1803977 1.974436,2.0612656 0.680285,4.6575987 -2.8789446,5.8010577 -3.5551977,1.142165 -8.03146177,0.416799 -10.0093554,-1.640299 l 0,-0.02 C -4.4787917,9.427608 -3.1846408,6.8312752 0.37458905,5.6878154 1.4868484,5.3304843 2.6677751,5.1738042 3.856104,5.1677206 z m -4.9209875,8.0614704 c 1.31916103,0.718747 3.0672811,1.160212 5.0214158,1.160212 1.9541368,0 3.7022526,-0.441465 5.0214158,-1.160212 3.4112319,0.279822 6.0256989,1.965506 6.0256989,4.020733 l 0,4.360796 c 0,2.252202 -3.107578,4.040737 -6.996506,4.040737 l -8.13469353,0 c -3.88892717,0 -6.99650597,-1.788535 -6.99650597,-4.040737 l 0,-4.360796 c 0,-2.055227 2.6479417,-3.740911 6.059175,-4.020733 z"
         id="path3951"
         inkscape:connector-curvature="0" />
    </clipPath>
    <clipPath
       clipPathUnits="userSpaceOnUse"
       id="clipPath3953">
      <path
         style="fill:#e6e6e6;fill-opacity:1;stroke:#000000;stroke-width:0;stroke-miterlimit:0.1;stroke-opacity:1;stroke-dashoffset:0"
         d="M 0,-3.7812501 0,32 l 35.96875,0 0,-35.7812501 -35.96875,0 z m 12.9375,2.875 c 2.440476,-0.020909 4.826592,1.192404 6.09375,3.40625 1.843139,3.22014 0.635047,7.2761701 -2.6875,9.0625001 C 13.024967,13.346807 8.846367,12.213629 7,9 L 7,8.96875 C 5.156861,5.7486099 6.364953,1.6925799 9.6875,-0.0937501 c 1.038296,-0.558228 2.140693,-0.802996 3.25,-0.8125 z M 8.34375,11.6875 c 1.231439,1.122838 2.863312,1.8125 4.6875,1.8125 1.82419,0 3.456059,-0.689662 4.6875,-1.8125 3.184391,0.437142 5.625,3.070543 5.625,6.28125 l 0,6.8125 c 0,3.518424 -2.900929,6.3125 -6.53125,6.3125 l -7.59375,0 c -3.63032,0 -6.53125,-2.794076 -6.53125,-6.3125 l 0,-6.8125 c 0,-3.210707 2.471858,-5.844108 5.65625,-6.28125 z"
         id="path3955"
         inkscape:connector-curvature="0" />
    </clipPath>
  </defs>
  <sodipodi:namedview
     id="base"
     pagecolor="#ffffff"
     bordercolor="#666666"
     borderopacity="1.0"
     inkscape:pageopacity="0.0"
     inkscape:pageshadow="2"
     inkscape:zoom="7.5072615"
     inkscape:cx="-13.195277"
     inkscape:cy="16.152694"
     inkscape:current-layer="layer1"
     showgrid="true"
     inkscape:grid-bbox="true"
     inkscape:document-units="px"
     inkscape:window-width="1920"
     inkscape:window-height="1025"
     inkscape:window-x="0"
     inkscape:window-y="27"
     inkscape:window-maximized="1" />
  <metadata
     id="metadata2992">
    <rdf:RDF>
      <cc:Work
         rdf:about="">
        <dc:format>image/svg+xml</dc:format>
        <dc:type
           rdf:resource="http://purl.org/dc/dcmitype/StillImage" />
        <dc:title></dc:title>
      </cc:Work>
    </rdf:RDF>
  </metadata>
  <g
     inkscape:groupmode="layer"
     id="layer2"
     inkscape:label="Layer 2"
     transform="translate(0,-6)" />
  <g
     id="layer1"
     inkscape:label="Layer 1"
     inkscape:groupmode="layer"
     transform="translate(0,-6)">
    <path
       style="fill:#c1a3fe;fill-opacity:1;stroke-width:0.1;stroke-miterlimit:4;stroke-dasharray:none;stroke-dashoffset:0"
       d="m 6.5227215,16.919742 c -2.299838,0.315713 -4.0688268,2.226619 -4.0688268,4.545463 l 0,4.906691 c 0,2.541084 2.099183,4.575564 4.7210815,4.575564 l 5.4665138,0 c 2.621897,0 4.721082,-2.03448 4.721082,-4.575564 l 0,-4.906691 c 0,-2.318844 -1.768989,-4.22975 -4.068828,-4.545463 -0.889373,0.810939 -2.068041,1.324506 -3.3855119,1.324506 -1.3174692,0 -2.4961379,-0.513567 -3.3855106,-1.324506 z"
       id="rect3027"
       inkscape:connector-curvature="0" />
    <path
       transform="matrix(0.86833788,0,0,1.3366176,-2.4898013,2.5454563)"
       sodipodi:open="true"
       sodipodi:end="8.916703"
       sodipodi:start="2.63512"
       d="M 9.4308853,9.4231894 C 7.897892,7.6832327 8.8953827,5.4902554 11.658843,4.5250373 c 2.763461,-0.965218 6.246425,-0.3371683 7.779418,1.4027884 1.532993,1.7399567 0.535503,3.932934 -2.227958,4.8981523 -2.76033,0.964124 -6.239286,0.338696 -7.7749637,-1.3977428"
       sodipodi:ry="3.6027565"
       sodipodi:rx="5.7220249"
       sodipodi:cy="7.6755075"
       sodipodi:cx="14.434573"
       id="path3824-1-7-0"
       style="fill:#c1a3fe;fill-opacity:1;stroke:#000000;stroke-width:0;stroke-miterlimit:4;stroke-opacity:1;stroke-dasharray:none;stroke-dashoffset:0"
       sodipodi:type="arc" />
    <path
       inkscape:connector-curvature="0"
       id="path3032"
       d="m 17.76575,11.354513 c 3.33839,1.698643 3.727536,2.383836 -0.748138,6.915139 -1.973182,1.843954 0.154753,6.145536 2.856534,6.145536 l 5.876745,0 c 2.818656,0 5.075372,-2.377865 5.075372,-5.347839 l 0,-5.734853 c 0,-2.710222 -1.901741,-4.9436554 -4.374169,-5.3126554 -0.956116,0.94781 -3.824462,1.8306281 -6.842026,0.2764979 -2.011751,3.4494955 0.12456,0.00308 -1.844318,3.0581745 z"
       style="fill:#c1a3fe;fill-opacity:1;stroke-width:0.1;stroke-miterlimit:4;stroke-dasharray:none;stroke-dashoffset:0"
       clip-path="url(#clipPath3953)"
       transform="matrix(0.72222222,0,0,0.72222222,0.91536138,8.3823904)"
       sodipodi:nodetypes="ccssssccc" />
    <path
       sodipodi:type="arc"
       style="fill:#c1a3fe;fill-opacity:1;stroke:#000000;stroke-width:0;stroke-miterlimit:4;stroke-opacity:1;stroke-dasharray:none;stroke-dashoffset:0"
       id="path3034"
       sodipodi:cx="14.434573"
       sodipodi:cy="7.6755075"
       sodipodi:rx="5.7220249"
       sodipodi:ry="3.6027565"
       d="M 9.4308853,9.4231894 C 7.897892,7.6832327 8.8953827,5.4902554 11.658843,4.5250373 c 2.763461,-0.965218 6.246425,-0.3371683 7.779418,1.4027884 1.532993,1.7399567 0.535503,3.932934 -2.227958,4.8981523 -2.76033,0.964124 -6.239286,0.338696 -7.7749637,-1.3977428"
       sodipodi:start="2.63512"
       sodipodi:end="8.916703"
       sodipodi:open="true"
       transform="matrix(0.67419565,0,0,1.1282664,7.7273686,1.9993503)"
       clip-path="url(#clipPath3949)" />
  </g>
</svg>
