<?xml version="1.0" encoding="UTF-8" standalone="no"?>
<!-- Created with Inkscape (http://www.inkscape.org/) -->

<svg
   xmlns:dc="http://purl.org/dc/elements/1.1/"
   xmlns:cc="http://creativecommons.org/ns#"
   xmlns:rdf="http://www.w3.org/1999/02/22-rdf-syntax-ns#"
   xmlns:svg="http://www.w3.org/2000/svg"
   xmlns="http://www.w3.org/2000/svg"
   xmlns:sodipodi="http://sodipodi.sourceforge.net/DTD/sodipodi-0.dtd"
   xmlns:inkscape="http://www.inkscape.org/namespaces/inkscape"
   id="svg2"
   sodipodi:version="0.32"
viewBox="0 0 100 100" 
width="10%" 
   height="10%"
   inkscape:version="0.48.4 r9939"
   sodipodi:docname="mickey.svg"
   inkscape:export-filename="/home/vijaykumar/art/mickey.png"
   inkscape:export-xdpi="165.73"
   inkscape:export-ydpi="165.73"
   version="1.1">
  <defs
     id="defs4" />
  <sodipodi:namedview
     id="base"
     pagecolor="#ffffff"
     bordercolor="#666666"
     borderopacity="1.0"
     gridtolerance="10000"
     guidetolerance="3.5"
     objecttolerance="10"
     inkscape:pageopacity="0.0"
     inkscape:pageshadow="2"
     inkscape:zoom="0.70710678"
     inkscape:cx="161.50333"
     inkscape:cy="442.95121"
     inkscape:document-units="px"
     inkscape:current-layer="layer1"
     showguides="false"
     inkscape:guide-bbox="true"
     inkscape:window-width="1920"
     inkscape:window-height="1025"
     inkscape:window-x="0"
     inkscape:window-y="27"
     showgrid="false"
     inkscape:window-maximized="1">
    <sodipodi:guide
       orientation="horizontal"
       position="924.28571"
       id="guide1900" />
    <sodipodi:guide
       orientation="horizontal"
       position="530"
       id="guide1902" />
    <sodipodi:guide
       orientation="horizontal"
       position="862.14286"
       id="guide1916" />
    <sodipodi:guide
       orientation="horizontal"
       position="829.28572"
       id="guide1918" />
    <sodipodi:guide
       orientation="vertical"
       position="39.59798"
       id="guide2978" />
    <sodipodi:guide
       orientation="vertical"
       position="82.024386"
       id="guide2980" />
    <sodipodi:guide
       orientation="vertical"
       position="424.97117"
       id="guide2982" />
    <sodipodi:guide
       orientation="vertical"
       position="468.98857"
       id="guide3313" />
    <sodipodi:guide
       orientation="vertical"
       position="54.447222"
       id="guide3315" />
    <sodipodi:guide
       orientation="vertical"
       position="442.64884"
       id="guide3317" />
    <sodipodi:guide
       orientation="horizontal"
       position="812"
       id="guide3536" />
    <sodipodi:guide
       orientation="horizontal"
       position="654.78088"
       id="guide3538" />
    <sodipodi:guide
       orientation="vertical"
       position="333.04729"
       id="guide3921" />
    <sodipodi:guide
       orientation="vertical"
       position="-59.396969"
       id="guide3923" />
    <sodipodi:guide
       orientation="horizontal"
       position="601.04076"
       id="guide4073" />
    <sodipodi:guide
       orientation="vertical"
       position="158"
       id="guide4473" />
    <sodipodi:guide
       orientation="vertical"
       position="561"
       id="guide4475" />
    <sodipodi:guide
       orientation="horizontal"
       position="724"
       id="guide4513" />
    <sodipodi:guide
       orientation="horizontal"
       position="555"
       id="guide5474" />
  </sodipodi:namedview>
  <metadata
     id="metadata7">
    <rdf:RDF>
      <cc:Work
         rdf:about="">
        <dc:format>image/svg+xml</dc:format>
        <dc:type
           rdf:resource="http://purl.org/dc/dcmitype/StillImage" />
        <dc:title></dc:title>
      </cc:Work>
    </rdf:RDF>
  </metadata>
  <g
     inkscape:label="Layer 1"
     inkscape:groupmode="layer"
     id="layer1">
    <g
       id="g3204"
       transform="translate(1.237437,0)" />
    <g
       id="g5476"
       transform="matrix(1.4797327,0,0,1.2695947,-299.31105,61.447131)"
       style="fill:#ffffff;fill-opacity:1">
      <path
         sodipodi:nodetypes="ccccccccc"
         id="path4517"
         d="m 546.5,264.36218 c 4.96085,-24.94346 28.9697,-0.44151 18.87546,-30.0163 0.11462,-13.82753 35.75235,-0.96964 20.71223,21.62311 11.59486,7.50356 5.36963,1.33022 14.24258,9.80629 13.87294,5.47607 28.34407,25.10155 23.83164,28.70275 0.47742,4.37152 3.24284,11.142 -3.95485,11.38378 -0.30907,6.67834 -7.85849,9.45488 -13.23353,7.21164 -15.55781,-15.42731 -20.37026,-13.03897 -37.41649,-14.64769 -6.79486,-0.24949 -14.54914,-1.30873 -18.05704,-8.56357"
         style="fill:#ffffff;fill-opacity:1;fill-rule:evenodd;stroke:#000000;stroke-width:2;stroke-linecap:butt;stroke-linejoin:miter;stroke-miterlimit:4;stroke-opacity:1;stroke-dasharray:none"
         inkscape:connector-curvature="0" />
      <path
         sodipodi:nodetypes="cccc"
         id="path4525"
         d="m 552.5,282.86218 c 2.21341,8.4928 -7.29843,14.78676 -13.88422,10.32352 -5.71723,-4.44915 -5.76506,-12.39749 -6.34084,-19.01383 -0.99607,-12.10758 14.78956,-13.56092 18.22506,-4.30969"
         style="fill:#ffffff;fill-opacity:1;fill-rule:evenodd;stroke:#000000;stroke-width:2;stroke-linecap:butt;stroke-linejoin:miter;stroke-miterlimit:4;stroke-opacity:1;stroke-dasharray:none"
         inkscape:connector-curvature="0" />
      <path
         sodipodi:nodetypes="cc"
         id="path4533"
         d="m 624.5,294.86218 c -7.61408,-7.54655 -14.5581,-12.68242 -24.5,-17.5"
         style="fill:#ffffff;fill-opacity:1;fill-rule:evenodd;stroke:#000000;stroke-width:1px;stroke-linecap:butt;stroke-linejoin:miter;stroke-opacity:1"
         inkscape:connector-curvature="0" />
      <path
         sodipodi:nodetypes="cc"
         id="path4535"
         d="m 620,306.86218 c -7.45694,-9.55721 -14.39844,-12.7891 -25.5,-18.5"
         style="fill:#ffffff;fill-opacity:1;fill-rule:evenodd;stroke:#000000;stroke-width:1px;stroke-linecap:butt;stroke-linejoin:miter;stroke-opacity:1"
         inkscape:connector-curvature="0" />
      <path
         sodipodi:nodetypes="cc"
         id="path4537"
         d="m 595,267.86218 c 1.81552,8.80253 0.99883,20.11699 -5,27"
         style="fill:#ffffff;fill-opacity:1;fill-rule:evenodd;stroke:#000000;stroke-width:2;stroke-linecap:butt;stroke-linejoin:miter;stroke-miterlimit:4;stroke-opacity:1;stroke-dasharray:none"
         inkscape:connector-curvature="0" />
    </g>
    <g
       id="g3374"
       transform="matrix(1.4797327,0,0,1.2695947,-283.54176,59.728671)">
      <path
         id="path3329"
         style="fill:#000000;fill-opacity:1;fill-rule:evenodd;stroke:#000000;stroke-width:1px;stroke-linecap:butt;stroke-linejoin:miter;stroke-opacity:1"
         d="m 527.96447,273.2764 c 8.74268,-1.24267 8.34363,12.93643 6.76256,15 -4.76305,1.71002 -22.5212,8.20491 -43.91389,13.71196 -11.90333,3.32068 -10.9642,3.22838 -17.41068,5.46374 8.0492,4.88702 16.31418,13.6927 29.13885,28.97574 -30.47036,-14.07383 -45.82775,-20.13093 -77.12577,0.0103 -3.89471,-19.79519 -20.32926,-26.33151 -30.52448,-26.89075 -20.25965,-0.34315 -27.59851,-0.76062 -62.89106,3.95767 7.70745,-5.28171 7.78779,-18.99096 -2.99999,-24.14286 59.21222,5.8481 115.97914,7.864 198.96446,-16.08578 z"
         sodipodi:nodetypes="cccccccccc"
         inkscape:connector-curvature="0" />
    </g>
    <g
       id="g3244"
       transform="matrix(1.4797327,0,0,1.2695947,-283.54176,59.728671)">
      <g
         id="g3209">
        <path
           style="fill:#ffdbbf;fill-opacity:1;stroke:none"
           d="m 496.03546,253.48205 c -3.71231,16.43033 -22.28005,36.59277 -50.73492,35.00178 -29.82993,1.33327 -57.45242,-18.2179 -57.45242,-35.00178 0,-16.78389 24.23396,-30.40559 54.09367,-30.40559 14.92985,0 25.66903,6.23385 29.02974,15.18441 11.6692,-3.24703 24.79877,0.99561 25.06393,15.22118 z"
           id="path3196"
           sodipodi:nodetypes="ccsscc"
           inkscape:connector-curvature="0" />
        <path
           transform="matrix(0.601308,0,0,1.007576,265.7288,178.5638)"
           style="fill:#ffdbbf;fill-opacity:1;stroke:none"
           d="m 325.97624,77.96904 c 2.70244,14.462422 1.76299,24.73401 -9.26225,32.30493 -23.22443,-0.26583 -33.31223,11.21306 -44.83142,14.36412 -32.25033,1.30263 -50.97547,-21.40398 -54.09367,-46.66905 -3.17086,-25.691719 24.23396,-46.669048 54.09367,-46.669048 29.8597,0 54.09367,20.907733 54.09367,46.669048 z"
           id="path3194"
           sodipodi:nodetypes="cccssc"
           inkscape:connector-curvature="0" />
        <path
           sodipodi:type="arc"
           style="fill:#ffdbbf;fill-opacity:1;stroke:none"
           id="path3190"
           sodipodi:cx="271.88257"
           sodipodi:cy="77.96904"
           sodipodi:rx="54.09367"
           sodipodi:ry="46.669048"
           d="m 325.97624,77.96904 c 0,25.7746 -24.21856,46.66905 -54.09367,46.66905 -29.87511,0 -54.09367,-20.89445 -54.09367,-46.66905 0,-25.774604 24.21856,-46.669048 54.09367,-46.669048 29.87511,0 54.09367,20.894444 54.09367,46.669048 z"
           transform="translate(142.8356,153.2624)" />
      </g>
      <path
         sodipodi:nodetypes="cccsc"
         id="path3192"
         d="m 325.97624,77.96904 c 0,25.76131 -24.23397,46.66905 -54.09367,46.66905 -28.09194,-2.82843 -54.09367,-20.90774 -54.09367,-46.66905 0,-25.761315 24.23396,-46.669048 54.09367,-46.669048 29.8597,0 54.09367,20.907733 54.09367,46.669048 z"
         style="fill:#ffdbbf;fill-opacity:1;stroke:none"
         transform="translate(142.8356,168.1117)"
         inkscape:connector-curvature="0" />
      <path
         style="fill:none;stroke:#000000;stroke-width:1.5;stroke-linecap:butt;stroke-linejoin:miter;stroke-miterlimit:4;stroke-opacity:1;stroke-dasharray:none"
         d="m 421.83947,208.31561 c -1.94737,-15.75954 7.61573,-14.05458 10.43382,-9.57842"
         id="path3257"
         sodipodi:nodetypes="cc"
         inkscape:connector-curvature="0" />
      <path
         style="fill:none;stroke:#000000;stroke-width:1.5;stroke-linecap:butt;stroke-linejoin:miter;stroke-miterlimit:4;stroke-opacity:1;stroke-dasharray:none"
         d="m 450.75,204.29969 c 1.36421,-5.93106 7.16536,-1.58857 7.3125,-1"
         id="path3259"
         sodipodi:nodetypes="cc"
         inkscape:connector-curvature="0" />
    </g>
    <path
       id="path1908"
       style="fill:#000000;fill-opacity:1;fill-rule:evenodd;stroke:#000000;stroke-width:1.37064254px;stroke-linecap:butt;stroke-linejoin:miter;stroke-opacity:1"
       d="m 411.94325,362.90528 c -1.03569,-9.95642 -7.66442,-39.17549 -27.49136,-52.60663 -19.82694,-13.43113 -8.45256,27.45942 -13.90347,10.67297 -9.35679,-15.80716 -22.10981,-27.39778 -38.82955,-25.09578 -16.73049,2.04876 -21.84689,16.67499 -21.6183,27.88503 0.29969,14.69667 -2.28409,16.79113 15.49005,39.35235 -47.90077,-47.51314 -124.19817,22.45585 -9.99997,62.31024 5.37996,2.59823 3.61861,3.56693 -1.07818,2.72056 -18.82223,-3.09071 -62.21979,-20.79125 -68.9485,-49.32573 -14.51322,15.68232 -25.50463,24.10209 -57.43345,22.11291 -32.44614,-9.47422 -45.64385,-38.22277 -36.91541,-64.39965 14.96979,-28.1973 73.26731,-46.26701 94.47374,4.15064 5.97018,-16.73714 12.02856,-25.90055 29.50602,-39.13902 -40.86005,0.58093 -69.10828,-65.57301 4.3247,-79.25655 59.47629,-3.308 72.12546,49.51434 41.5152,65.3407 30.29928,3.32512 89.85152,13.63968 90.90848,75.27796 z"
       sodipodi:nodetypes="ccccsccccccccccc"
       inkscape:connector-curvature="0" />
    <path
       style="fill:none;stroke:#000000;stroke-width:2.74128509;stroke-linecap:round;stroke-linejoin:miter;stroke-miterlimit:4;stroke-opacity:1;stroke-dasharray:none"
       d="m 386.56579,381.03321 c 9.82131,-14.63312 32.39085,-25.93188 51.67292,-18.36933 11.45576,3.98068 16.1023,23.36832 2.07676,38.65838 -13.52637,14.66057 -34.91712,24.61843 -56.77271,25.31639 -31.68938,-0.036 -62.97943,-23.29001 -77.30533,-50.13968"
       id="path1929"
       sodipodi:nodetypes="ccccc"
       inkscape:connector-curvature="0" />
    <path
       style="fill:#000000;fill-opacity:1;fill-rule:evenodd;stroke:#000000;stroke-width:1.37064254px;stroke-linecap:butt;stroke-linejoin:miter;stroke-opacity:1"
       d="m 424.61605,375.25367 c -5.91101,-9.55881 -7.34496,-24.39131 4.44244,-31.0603 15.95803,-4.27409 18.55656,14.8521 14.78807,24.62732 -2.30328,7.82384 -11.80231,12.74178 -19.23051,6.43298 z"
       id="path1938"
       sodipodi:nodetypes="cccc"
       inkscape:connector-curvature="0" />
    <path
       style="fill:#000000;fill-opacity:1;fill-rule:evenodd;stroke:#000000;stroke-width:2.19302797;stroke-linecap:butt;stroke-linejoin:miter;stroke-miterlimit:4;stroke-opacity:1;stroke-dasharray:none"
       d="m 297.90253,381.95296 c 2.09796,-4.61007 3.57556,-6.33753 9.60324,-7.63046 5.52452,-1.18499 8.44793,3.31961 11.5358,4.64429 -9.77928,-2.15271 -13.91654,-2.45495 -21.13904,2.98617 z"
       id="path2859"
       sodipodi:nodetypes="cscc"
       inkscape:connector-curvature="0" />
    <path
       style="fill:#000000;fill-opacity:1;fill-rule:evenodd;stroke:#000000;stroke-width:1.37064254px;stroke-linecap:butt;stroke-linejoin:miter;stroke-opacity:1"
       d="m 376.41721,426.37591 c -16.02307,0.55868 -53.49646,-15.12528 -69.12283,-47.15639 11.97824,14.61341 13.75047,26.63882 16.2346,36.09073 2.90772,11.0636 4.41504,17.22262 17.63541,20.78747 19.90491,4.88663 11.65265,-8.02681 35.25282,-9.72181 z"
       id="path2879"
       sodipodi:nodetypes="ccscc"
       inkscape:connector-curvature="0" />
    <path
       style="fill:#dc0a0a;fill-opacity:1;fill-rule:evenodd;stroke:#000000;stroke-width:1.37064254px;stroke-linecap:butt;stroke-linejoin:miter;stroke-opacity:1"
       d="m 325.13434,418.14977 c -1.93148,-5.27571 6.61055,-4.3559 10.2084,-1.95619 6.37348,2.6766 8.41278,7.93671 7.58635,13.97112 0.40647,-5.62089 -2.25169,-10.83032 3.93806,-6.62894 5.01817,4.21375 9.26697,6.16632 6.85505,12.42327 -6.33751,3.16977 -15.86411,-1.73397 -19.16641,-3.6288 -5.90948,-3.0209 -8.60043,-8.49126 -9.42145,-14.18046 z"
       id="path2889"
       sodipodi:nodetypes="ccccccc"
       inkscape:connector-curvature="0" />
    <path
       style="fill:none;stroke:#000000;stroke-width:2.74128509;stroke-linecap:butt;stroke-linejoin:miter;stroke-miterlimit:4;stroke-opacity:1;stroke-dasharray:none"
       d="m 313.58296,417.2709 c 11.60679,30.01504 28.58372,30.13263 41.02917,27.58279 7.80479,-1.85076 12.45223,-15.33965 24.76837,-17.2118"
       id="path2906"
       sodipodi:nodetypes="ccs"
       inkscape:connector-curvature="0" />
    <path
       sodipodi:nodetypes="cccc"
       id="path2938"
       d="m 350.79488,361.0567 c -5.00924,-41.40068 23.49773,-33.19964 22.90141,-9.61344 0.15553,5.58111 -2.53341,16.96439 -7.40202,19.98329 -10.49332,2.85216 -13.39426,-4.6781 -15.49939,-10.36985 z"
       style="fill:#ffffff;fill-opacity:1;fill-rule:evenodd;stroke:#000000;stroke-width:2.05596375;stroke-linecap:butt;stroke-linejoin:miter;stroke-miterlimit:4;stroke-opacity:1;stroke-dasharray:none"
       inkscape:connector-curvature="0" />
    <path
       sodipodi:nodetypes="cccc"
       id="path3044"
       d="m 370.88033,364.74277 c -2.47159,4.73431 -3.62967,4.9769 -7.68298,7.56468 -8.17047,0.0645 -12.81242,-11.24927 -12.65303,-13.32178 3.49273,-14.85821 18.61125,-3.32815 20.33601,5.7571 z"
       style="fill:#000000;fill-opacity:1;fill-rule:evenodd;stroke:#000000;stroke-width:1.37064254px;stroke-linecap:butt;stroke-linejoin:miter;stroke-opacity:1"
       inkscape:connector-curvature="0" />
    <g
       id="g3200"
       transform="matrix(1.4797327,0,0,1.2695947,-286.68075,59.504231)">
      <path
         sodipodi:nodetypes="cccc"
         id="path2992"
         d="m 462.35431,242.24596 c -5.23856,-2.68946 -6.33647,-9.57718 -7.70589,-15.14677 -3.77969,-13.76879 6.25852,-19.2124 11.59293,1.99846 0.38447,4.30441 1.40154,12.18683 -3.88704,13.14831 z"
         style="fill:#ffffff;fill-opacity:1;fill-rule:evenodd;stroke:#000000;stroke-width:1.5;stroke-linecap:butt;stroke-linejoin:miter;stroke-miterlimit:4;stroke-opacity:1;stroke-dasharray:none"
         inkscape:connector-curvature="0" />
      <path
         sodipodi:nodetypes="cccc"
         id="path3188"
         d="m 466.63921,237.72934 c -0.0882,1.35399 0.0926,3.85573 -3.46359,4.01012 -5.52158,0.0508 -6.6157,-7.59276 -7.50799,-10.22518 2.61038,-6.95311 11.15954,1.5768 10.97158,6.21506 z"
         style="fill:#000000;fill-opacity:1;fill-rule:evenodd;stroke:#000000;stroke-width:1px;stroke-linecap:butt;stroke-linejoin:miter;stroke-opacity:1"
         inkscape:connector-curvature="0" />
    </g>
    <path
       style="fill:#ffffff;fill-opacity:1;fill-rule:evenodd;stroke:#000000;stroke-width:1.37064254px;stroke-linecap:butt;stroke-linejoin:miter;stroke-opacity:1"
       d="m 427.65551,350.93196 c -2.42089,1.45279 -5.21617,9.77708 -2.5887,14.08543 1.46576,2.18842 5.43948,3.37671 7.77918,1.53331 3.86762,-5.03181 4.78433,-14.50081 1.82678,-16.45086 -2.61991,-0.96569 -5.07027,-0.40341 -7.01726,0.83212 z"
       id="path3319"
       sodipodi:nodetypes="ccccc"
       inkscape:connector-curvature="0" />
    <path
       style="fill:#ffffff;fill-opacity:1;fill-rule:evenodd;stroke:#000000;stroke-width:2.74128509;stroke-linecap:butt;stroke-linejoin:miter;stroke-miterlimit:4;stroke-opacity:1;stroke-dasharray:none"
       d="m 202.78255,453.39099 c 4.68154,15.18083 -59.18993,69.41899 -71.26351,49.35895 -29.31107,1.65187 -12.00208,-23.53396 -16.58033,-18.74268 -5.52635,-2.41901 -8.94469,-13.54179 3.10745,-23.03762 14.74807,-11.61996 27.69832,-28.61822 34.42745,-49.13997 -9.79327,-18.97902 -7.82965,-48.94101 18.4387,-40.38585 17.62527,6.95344 7.04253,13.7346 6.09132,35.20886 7.60517,1.80291 17.2625,3.09686 20.47099,14.31477 14.48601,3.64545 14.94499,6.59604 18.21094,16.98973 2.7519,15.22364 2.01949,27.71032 -20.35753,31.23676"
       id="path3381"
       sodipodi:nodetypes="cccscccccc"
       inkscape:connector-curvature="0" />
    <path
       style="fill:none;stroke:#000000;stroke-width:1.37064254px;stroke-linecap:butt;stroke-linejoin:miter;stroke-opacity:1"
       d="m 115.10959,487.29024 c 7.75038,-15.59093 19.65838,-15.61969 31.38988,-30.97201"
       id="path3395"
       sodipodi:nodetypes="cc"
       inkscape:connector-curvature="0" />
    <path
       style="fill:none;stroke:#000000;stroke-width:1.37064254px;stroke-linecap:butt;stroke-linejoin:miter;stroke-opacity:1"
       d="m 132.8972,501.65407 c -4.08511,-16.94612 14.79662,-13.25728 25.11188,-29.17654"
       id="path3397"
       sodipodi:nodetypes="cc"
       inkscape:connector-curvature="0" />
    <path
       style="fill:none;stroke:#000000;stroke-width:1.37064254px;stroke-linecap:butt;stroke-linejoin:miter;stroke-opacity:1"
       d="m 146.49947,437.91461 c -6.87258,22.88579 3.66586,34.79012 19.88025,37.70502"
       id="path3399"
       sodipodi:nodetypes="cc"
       inkscape:connector-curvature="0" />
    <path
       style="fill:none;stroke:#000000;stroke-width:2.74128509;stroke-linecap:butt;stroke-linejoin:miter;stroke-miterlimit:4;stroke-opacity:1;stroke-dasharray:none"
       d="m 179.67554,407.85355 c 11.87023,-2.15437 19.69812,8.8564 17.30162,21.91761"
       id="path3474"
       sodipodi:nodetypes="cc"
       inkscape:connector-curvature="0" />
    <path
       style="fill:none;stroke:#000000;stroke-width:2.74128509;stroke-linecap:round;stroke-linejoin:miter;stroke-miterlimit:4;stroke-opacity:1;stroke-dasharray:none"
       d="m 162.68042,445.62241 c 9.83899,-21.01981 36.35745,-24.8056 38.66155,-5.60427"
       id="path3493"
       sodipodi:nodetypes="cc"
       inkscape:connector-curvature="0" />
    <path
       style="fill:#e60a0a;fill-opacity:1;fill-rule:evenodd;stroke:#000000;stroke-width:2.74128509;stroke-linecap:butt;stroke-linejoin:miter;stroke-miterlimit:4;stroke-opacity:1;stroke-dasharray:none"
       d="m 458.42614,554.8035 c -17.41811,17.83833 -57.33528,-6.06768 -69.68462,14.92138 -27.12876,-2.80101 -56.24849,-8.28715 -67.5051,0.15735 9.39982,-6.67668 19.35958,-27.13051 22.60292,-37.8654 -2.6807,-24.72681 -3.28113,-37.22481 6.47618,-49.63213 10.01638,-10.72823 12.13915,-8.89502 40.72201,-18.2669 86.25869,-11.76592 98.11388,66.23079 67.38861,90.6857 z"
       id="path3909"
       sodipodi:nodetypes="ccccccc"
       inkscape:connector-curvature="0" />
    <path
       style="fill:#edb811;fill-opacity:1;fill-rule:evenodd;stroke:#000000;stroke-width:2.74128509;stroke-linecap:butt;stroke-linejoin:miter;stroke-miterlimit:4;stroke-opacity:1;stroke-dasharray:none"
       d="m 396.91859,634.5492 c -16.6182,9.84306 -13.67928,35.16748 5.85217,41.03663 52.37946,25.16835 113.15748,14.07254 140.13489,-9.43736 17.96391,-15.81876 12.60845,-47.05961 -12.5198,-54.91208 -21.42558,-5.70932 -44.18069,0.9745 -63.31683,9.36927 -6.45246,2.36514 -16.42574,5.15764 -23.50166,5.28744"
       id="path4386"
       sodipodi:nodetypes="cccccc"
       inkscape:connector-curvature="0" />
    <path
       style="fill:#edb811;fill-opacity:1;fill-rule:evenodd;stroke:#000000;stroke-width:2.74128509;stroke-linecap:butt;stroke-linejoin:miter;stroke-miterlimit:4;stroke-opacity:1;stroke-dasharray:none"
       d="m 404.40702,638.88387 c -29.12847,-14.42076 12.80455,-33.02694 37.02942,-17.14917 4.08754,4.57127 3.71588,11.15292 -6.74748,16.77732"
       id="path4449"
       sodipodi:nodetypes="ccc"
       inkscape:connector-curvature="0" />
    <path
       style="fill:#000000;fill-opacity:1;fill-rule:evenodd;stroke:#000000;stroke-width:1.37064254px;stroke-linecap:butt;stroke-linejoin:miter;stroke-opacity:1"
       d="m 422.29076,580.72233 c -1.74235,6.14152 -15.88149,42.73243 -16.87341,46.91893 -1.65667,6.63873 26.49632,9.82057 26.9542,3.67688 7.18314,-15.74527 21.44698,-50.46938 17.74932,-52.40251 -4.23839,-1.62089 -24.40162,6.75587 -27.83011,1.8067 z"
       id="path4313"
       sodipodi:nodetypes="ccccc"
       inkscape:connector-curvature="0" />
    <path
       style="fill:#e60a0a;fill-opacity:1;fill-rule:evenodd;stroke:#000000;stroke-width:2.74128509;stroke-linecap:butt;stroke-linejoin:miter;stroke-miterlimit:4;stroke-opacity:1;stroke-dasharray:none"
       d="m 461.9305,549.65121 c 2.23678,6.51834 9.68509,19.60502 7.98687,24.67246 -13.18919,8.67616 -39.91889,10.66063 -55.39975,6.79284 4.44952,-5.87511 -0.88801,-15.36129 -4.63376,-19.3107 -10.41721,-0.4781 -8.90784,-0.42179 -16.65352,7.59491 -7.39921,-2.35482 -46.90649,-4.45978 -55.05015,-5.03256 -23.27553,3.66565 -18.66424,9.91697 -13.18891,14.48835 10.89389,7.75957 52.94659,7.27583 64.66222,0.24776 11.08587,-8.81642 -8.72848,-7.81663 11.81298,-28.02943"
       id="path3907"
       sodipodi:nodetypes="ccccccccc"
       inkscape:connector-curvature="0" />
    <path
       style="fill:none;stroke:#000000;stroke-width:1.37064254px;stroke-linecap:butt;stroke-linejoin:miter;stroke-opacity:1"
       d="m 437.44133,560.02649 c -12.72605,7.71658 -20.926,1.78752 -29.45034,1.54437"
       id="path3542"
       sodipodi:nodetypes="cc"
       inkscape:connector-curvature="0" />
    <path
       style="fill:#ffffff;fill-opacity:1;fill-rule:evenodd;stroke:#000000;stroke-width:2.05596375;stroke-linecap:butt;stroke-linejoin:miter;stroke-miterlimit:4;stroke-opacity:1;stroke-dasharray:none"
       d="m 402.93823,509.84929 c -5.00923,-41.40067 23.49773,-33.19964 22.90141,-9.61344 0.15554,5.58111 -2.5334,16.96439 -7.40202,19.9833 -10.49332,2.85215 -13.39426,-4.67811 -15.49939,-10.36986 z"
       id="path3913"
       sodipodi:nodetypes="cccc"
       inkscape:connector-curvature="0" />
    <path
       style="fill:#ffffff;fill-opacity:1;fill-rule:evenodd;stroke:#000000;stroke-width:2.05596375;stroke-linecap:butt;stroke-linejoin:miter;stroke-miterlimit:4;stroke-opacity:1;stroke-dasharray:none"
       d="m 455.21697,518.08404 c -7.75167,-3.41452 -9.37628,-12.15913 -11.40266,-19.23026 -5.59293,-17.48078 9.26094,-24.39196 17.15444,2.53724 0.56891,5.46485 2.0739,15.47233 -5.75178,16.69302 z"
       id="path3919"
       sodipodi:nodetypes="cccc"
       inkscape:connector-curvature="0" />
    <path
       style="fill:#edb811;fill-opacity:1;fill-rule:evenodd;stroke:#000000;stroke-width:2.74128509;stroke-linecap:butt;stroke-linejoin:miter;stroke-miterlimit:4;stroke-opacity:1;stroke-dasharray:none"
       d="m 260.29543,637.58451 c -46.47136,13.54986 -49.91008,48.82997 -30.5041,64.4063 17.3306,14.47393 36.63144,20.99266 59.95945,21.40285 26.64721,0.38413 55.05939,-5.88583 74.15057,-22.64641 13.51,-14.38306 6.97455,-38.83892 -12.87948,-46.32636 -8.59605,-3.72599 -17.59784,-6.77741 -26.14935,-10.5446 l -0.7678,-0.20141 -0.77565,-0.17805"
       id="path4079"
       sodipodi:nodetypes="cccccccc"
       inkscape:connector-curvature="0" />
    <path
       id="path4075"
       style="fill:#edb811;fill-opacity:1;fill-rule:evenodd;stroke:#000000;stroke-width:2.74128509;stroke-linecap:butt;stroke-linejoin:miter;stroke-miterlimit:4;stroke-opacity:1;stroke-dasharray:none"
       d="m 309.36775,647.24181 c 21.77461,-1.80367 18.37849,-14.86272 2.63126,-17.05705 -15.74723,-2.19433 -19.15391,-3.38717 -32.18234,-2.10351 -13.02842,1.28366 -21.35999,4.19712 -21.35999,11.82463 0,4.58017 11.89587,7.70779 15.92705,7.70779"
       sodipodi:nodetypes="cccsc"
       inkscape:connector-curvature="0" />
    <path
       style="fill:#000000;fill-opacity:1;fill-rule:evenodd;stroke:#000000;stroke-width:1.37064254px;stroke-linecap:butt;stroke-linejoin:miter;stroke-opacity:1"
       d="m 320.1901,572.57547 c -13.02322,14.69298 -37.97699,50.54777 -42.59978,59.17562 5.52734,8.50565 24.86144,10.98136 31.33083,2.97977 17.01761,-26.2544 29.62622,-42.08437 50.84532,-69.18295 -17.62921,-6.0448 -37.45121,1.99501 -39.57637,7.02756 z"
       id="path3925"
       sodipodi:nodetypes="ccccc"
       inkscape:connector-curvature="0" />
    <path
       style="fill:none;stroke:#000000;stroke-width:1.37064254px;stroke-linecap:butt;stroke-linejoin:miter;stroke-opacity:1"
       d="m 262.47962,663.88078 c 14.32016,-9.73402 46.47145,-12.19326 65.84811,-7.61756"
       id="path4231"
       sodipodi:nodetypes="cc"
       inkscape:connector-curvature="0" />
    <path
       style="fill:none;stroke:#000000;stroke-width:2.74128509;stroke-linecap:butt;stroke-linejoin:miter;stroke-miterlimit:4;stroke-opacity:1;stroke-dasharray:none"
       d="m 343.82226,520.50659 c -45.82327,22.72589 -70.99194,68.29828 -121.36645,85.30015 -14.67888,4.64418 -26.3437,6.48462 -51.27785,0.88281"
       id="path5483"
       sodipodi:nodetypes="ccc"
       inkscape:connector-curvature="0" />
    <path
       style="fill:none;stroke:#000000;stroke-width:2.74128509;stroke-linecap:round;stroke-linejoin:miter;stroke-miterlimit:4;stroke-opacity:1;stroke-dasharray:none"
       d="m 343.66903,522.81271 c -45.82327,22.72589 -70.83871,66.95167 -121.21322,83.95354 -14.67888,4.64418 -26.3437,5.69112 -51.27785,0.0892"
       id="path6387"
       sodipodi:nodetypes="ccc"
       inkscape:connector-curvature="0" />
  </g>
</svg>
