<?xml version="1.0" encoding="UTF-8" standalone="no"?>
<!-- Created with Inkscape (http://www.inkscape.org/) -->

<svg
   xmlns:dc="http://purl.org/dc/elements/1.1/"
   xmlns:cc="http://creativecommons.org/ns#"
   xmlns:rdf="http://www.w3.org/1999/02/22-rdf-syntax-ns#"
   xmlns:svg="http://www.w3.org/2000/svg"
   xmlns="http://www.w3.org/2000/svg"
   xmlns:sodipodi="http://sodipodi.sourceforge.net/DTD/sodipodi-0.dtd"
   xmlns:inkscape="http://www.inkscape.org/namespaces/inkscape"
   width="32px"
   height="32px"
   id="svg3070"
   version="1.1"
   inkscape:version="0.48.4 r9939"
   sodipodi:docname="New document 2">
  <defs
     id="defs3072" />
  <sodipodi:namedview
     id="base"
     pagecolor="#ffffff"
     bordercolor="#666666"
     borderopacity="1.0"
     inkscape:pageopacity="0.0"
     inkscape:pageshadow="2"
     inkscape:zoom="11.197802"
     inkscape:cx="16"
     inkscape:cy="19.57213"
     inkscape:current-layer="layer1"
     showgrid="true"
     inkscape:grid-bbox="true"
     inkscape:document-units="px"
     inkscape:window-width="874"
     inkscape:window-height="683"
     inkscape:window-x="0"
     inkscape:window-y="55"
     inkscape:window-maximized="0" />
  <metadata
     id="metadata3075">
    <rdf:RDF>
      <cc:Work
         rdf:about="">
        <dc:format>image/svg+xml</dc:format>
        <dc:type
           rdf:resource="http://purl.org/dc/dcmitype/StillImage" />
        <dc:title></dc:title>
      </cc:Work>
    </rdf:RDF>
  </metadata>
  <g
     id="layer1"
     inkscape:label="Layer 1"
     inkscape:groupmode="layer">
    <g
       id="g5476"
       transform="matrix(0.09045038,0,0,0.07770044,-24.656903,-8.8644559)"
       style="fill:#ffffff;fill-opacity:1">
      <path
         sodipodi:nodetypes="ccccccccc"
         id="path4517"
         d="m 546.5,264.36218 c 4.96085,-24.94346 28.9697,-0.44151 18.87546,-30.0163 0.11462,-13.82753 35.75235,-0.96964 20.71223,21.62311 11.59486,7.50356 5.36963,1.33022 14.24258,9.80629 13.87294,5.47607 28.34407,25.10155 23.83164,28.70275 0.47742,4.37152 3.24284,11.142 -3.95485,11.38378 -0.30907,6.67834 -7.85849,9.45488 -13.23353,7.21164 -15.55781,-15.42731 -20.37026,-13.03897 -37.41649,-14.64769 -6.79486,-0.24949 -14.54914,-1.30873 -18.05704,-8.56357"
         style="fill:#ffffff;fill-opacity:1;fill-rule:evenodd;stroke:#000000;stroke-width:2;stroke-linecap:butt;stroke-linejoin:miter;stroke-miterlimit:4;stroke-opacity:1;stroke-dasharray:none"
         inkscape:connector-curvature="0" />
      <path
         sodipodi:nodetypes="cccc"
         id="path4525"
         d="m 552.5,282.86218 c 2.21341,8.4928 -7.29843,14.78676 -13.88422,10.32352 -5.71723,-4.44915 -5.76506,-12.39749 -6.34084,-19.01383 -0.99607,-12.10758 14.78956,-13.56092 18.22506,-4.30969"
         style="fill:#ffffff;fill-opacity:1;fill-rule:evenodd;stroke:#000000;stroke-width:2;stroke-linecap:butt;stroke-linejoin:miter;stroke-miterlimit:4;stroke-opacity:1;stroke-dasharray:none"
         inkscape:connector-curvature="0" />
      <path
         sodipodi:nodetypes="cc"
         id="path4533"
         d="m 624.5,294.86218 c -7.61408,-7.54655 -14.5581,-12.68242 -24.5,-17.5"
         style="fill:#ffffff;fill-opacity:1;fill-rule:evenodd;stroke:#000000;stroke-width:1px;stroke-linecap:butt;stroke-linejoin:miter;stroke-opacity:1"
         inkscape:connector-curvature="0" />
      <path
         sodipodi:nodetypes="cc"
         id="path4535"
         d="m 620,306.86218 c -7.45694,-9.55721 -14.39844,-12.7891 -25.5,-18.5"
         style="fill:#ffffff;fill-opacity:1;fill-rule:evenodd;stroke:#000000;stroke-width:1px;stroke-linecap:butt;stroke-linejoin:miter;stroke-opacity:1"
         inkscape:connector-curvature="0" />
      <path
         sodipodi:nodetypes="cc"
         id="path4537"
         d="m 595,267.86218 c 1.81552,8.80253 0.99883,20.11699 -5,27"
         style="fill:#ffffff;fill-opacity:1;fill-rule:evenodd;stroke:#000000;stroke-width:2;stroke-linecap:butt;stroke-linejoin:miter;stroke-miterlimit:4;stroke-opacity:1;stroke-dasharray:none"
         inkscape:connector-curvature="0" />
    </g>
    <g
       id="g3374"
       transform="matrix(0.09045038,0,0,0.07770044,-23.692984,-8.9696235)">
      <path
         id="path3329"
         style="fill:#000000;fill-opacity:1;fill-rule:evenodd;stroke:#000000;stroke-width:1px;stroke-linecap:butt;stroke-linejoin:miter;stroke-opacity:1"
         d="m 527.96447,273.2764 c 8.74268,-1.24267 8.34363,12.93643 6.76256,15 -4.76305,1.71002 -22.5212,8.20491 -43.91389,13.71196 -11.90333,3.32068 -10.9642,3.22838 -17.41068,5.46374 8.0492,4.88702 16.31418,13.6927 29.13885,28.97574 -30.47036,-14.07383 -45.82775,-20.13093 -77.12577,0.0103 -3.89471,-19.79519 -20.32926,-26.33151 -30.52448,-26.89075 -20.25965,-0.34315 -27.59851,-0.76062 -62.89106,3.95767 7.70745,-5.28171 7.78779,-18.99096 -2.99999,-24.14286 59.21222,5.8481 115.97914,7.864 198.96446,-16.08578 z"
         sodipodi:nodetypes="cccccccccc"
         inkscape:connector-curvature="0" />
    </g>
    <g
       id="g3244"
       transform="matrix(0.09045038,0,0,0.07770044,-23.692984,-8.9696235)">
      <g
         id="g3209">
        <path
           style="fill:#ffdbbf;fill-opacity:1;stroke:none"
           d="m 496.03546,253.48205 c -3.71231,16.43033 -22.28005,36.59277 -50.73492,35.00178 -29.82993,1.33327 -57.45242,-18.2179 -57.45242,-35.00178 0,-16.78389 24.23396,-30.40559 54.09367,-30.40559 14.92985,0 25.66903,6.23385 29.02974,15.18441 11.6692,-3.24703 24.79877,0.99561 25.06393,15.22118 z"
           id="path3196"
           sodipodi:nodetypes="ccsscc"
           inkscape:connector-curvature="0" />
        <path
           transform="matrix(0.601308,0,0,1.007576,265.7288,178.5638)"
           style="fill:#ffdbbf;fill-opacity:1;stroke:none"
           d="m 325.97624,77.96904 c 2.70244,14.462422 1.76299,24.73401 -9.26225,32.30493 -23.22443,-0.26583 -33.31223,11.21306 -44.83142,14.36412 -32.25033,1.30263 -50.97547,-21.40398 -54.09367,-46.66905 -3.17086,-25.691719 24.23396,-46.669048 54.09367,-46.669048 29.8597,0 54.09367,20.907733 54.09367,46.669048 z"
           id="path3194"
           sodipodi:nodetypes="cccssc"
           inkscape:connector-curvature="0" />
        <path
           sodipodi:type="arc"
           style="fill:#ffdbbf;fill-opacity:1;stroke:none"
           id="path3190"
           sodipodi:cx="271.88257"
           sodipodi:cy="77.96904"
           sodipodi:rx="54.09367"
           sodipodi:ry="46.669048"
           d="m 325.97624,77.96904 c 0,25.7746 -24.21856,46.66905 -54.09367,46.66905 -29.87511,0 -54.09367,-20.89445 -54.09367,-46.66905 0,-25.774604 24.21856,-46.669048 54.09367,-46.669048 29.87511,0 54.09367,20.894444 54.09367,46.669048 z"
           transform="translate(142.8356,153.2624)" />
      </g>
      <path
         sodipodi:nodetypes="cccsc"
         id="path3192"
         d="m 325.97624,77.96904 c 0,25.76131 -24.23397,46.66905 -54.09367,46.66905 -28.09194,-2.82843 -54.09367,-20.90774 -54.09367,-46.66905 0,-25.761315 24.23396,-46.669048 54.09367,-46.669048 29.8597,0 54.09367,20.907733 54.09367,46.669048 z"
         style="fill:#ffdbbf;fill-opacity:1;stroke:none"
         transform="translate(142.8356,168.1117)"
         inkscape:connector-curvature="0" />
      <path
         style="fill:none;stroke:#000000;stroke-width:1.5;stroke-linecap:butt;stroke-linejoin:miter;stroke-miterlimit:4;stroke-opacity:1;stroke-dasharray:none"
         d="m 421.83947,208.31561 c -1.94737,-15.75954 7.61573,-14.05458 10.43382,-9.57842"
         id="path3257"
         sodipodi:nodetypes="cc"
         inkscape:connector-curvature="0" />
      <path
         style="fill:none;stroke:#000000;stroke-width:1.5;stroke-linecap:butt;stroke-linejoin:miter;stroke-miterlimit:4;stroke-opacity:1;stroke-dasharray:none"
         d="m 450.75,204.29969 c 1.36421,-5.93106 7.16536,-1.58857 7.3125,-1"
         id="path3259"
         sodipodi:nodetypes="cc"
         inkscape:connector-curvature="0" />
    </g>
    <path
       id="path1908"
       style="fill:#000000;fill-opacity:1;fill-rule:evenodd;stroke:#000000;stroke-width:0.08383336px;stroke-linecap:butt;stroke-linejoin:miter;stroke-opacity:1"
       d="M 18.819328,9.5850805 C 18.756013,8.9757373 18.35084,7.1874976 17.138894,6.3655013 15.926947,5.5435051 16.622219,8.0460482 16.289025,7.0186991 15.717082,6.0512846 14.937546,5.3419258 13.915521,5.4828088 12.892852,5.6081981 12.58011,6.5033344 12.594089,7.1893996 c 0.0183,0.8994559 -0.139621,1.0276331 0.946841,2.4084024 -2.927983,-2.9078501 -7.5917502,1.374323 -0.611261,3.813452 0.328851,0.159009 0.221188,0.218297 -0.06592,0.166503 C 11.713219,13.388598 9.0604981,12.305313 8.6491975,10.558971 7.7620541,11.518747 7.0901893,12.034043 5.1385,11.912303 3.1551949,11.332468 2.3484719,9.5730288 2.8820085,7.9709821 3.7970603,6.2452788 7.3605548,5.1393914 8.6568281,8.2250032 9.0217581,7.2006726 9.3920851,6.6398667 10.460417,5.8296607 7.9627989,5.8652399 6.2360889,1.8165241 10.724768,0.97908073 14.360322,0.77662338 15.133519,4.009409 13.262433,4.9779944 c 1.852076,0.2035043 5.492274,0.8347638 5.556878,4.6070861 z"
       sodipodi:nodetypes="ccccsccccccccccc"
       inkscape:connector-curvature="0" />
    <path
       style="fill:none;stroke:#000000;stroke-width:0.16766675;stroke-linecap:round;stroke-linejoin:miter;stroke-miterlimit:4;stroke-opacity:1;stroke-dasharray:none"
       d="m 17.268109,10.694525 c 0.600335,-0.8955593 1.97993,-1.5870529 3.158564,-1.1242219 0.700249,0.2436243 0.984267,1.4301689 0.12695,2.3659339 -0.826818,0.897238 -2.134352,1.506674 -3.470308,1.549389 -1.937045,-0.0022 -3.849683,-1.425371 -4.72537,-3.068599"
       id="path1929"
       sodipodi:nodetypes="ccccc"
       inkscape:connector-curvature="0" />
    <path
       style="fill:#000000;fill-opacity:1;fill-rule:evenodd;stroke:#000000;stroke-width:0.08383336px;stroke-linecap:butt;stroke-linejoin:miter;stroke-opacity:1"
       d="m 19.593976,10.340813 c -0.361318,-0.5850095 -0.448972,-1.4927754 0.271546,-1.9009238 0.975456,-0.2615746 1.134291,0.908967 0.903934,1.5072206 -0.140784,0.4788242 -0.721429,0.7798052 -1.17548,0.3937032 z"
       id="path1938"
       sodipodi:nodetypes="cccc"
       inkscape:connector-curvature="0" />
    <path
       style="fill:#000000;fill-opacity:1;fill-rule:evenodd;stroke:#000000;stroke-width:0.1341334;stroke-linecap:butt;stroke-linejoin:miter;stroke-miterlimit:4;stroke-opacity:1;stroke-dasharray:none"
       d="m 11.848459,10.750817 c 0.12825,-0.282143 0.218558,-0.387865 0.587015,-0.466997 0.337697,-0.07254 0.51639,0.203165 0.705138,0.284238 -0.597768,-0.13175 -0.850669,-0.150247 -1.292153,0.182759 z"
       id="path2859"
       sodipodi:nodetypes="cscc"
       inkscape:connector-curvature="0" />
    <path
       style="fill:#000000;fill-opacity:1;fill-rule:evenodd;stroke:#000000;stroke-width:0.08383336px;stroke-linecap:butt;stroke-linejoin:miter;stroke-opacity:1"
       d="m 16.647759,13.46954 c -0.979426,0.03419 -3.27003,-0.925679 -4.225209,-2.886011 0.732182,0.894351 0.840511,1.630315 0.992358,2.208786 0.177742,0.677101 0.269882,1.054041 1.077992,1.272214 1.216701,0.29907 0.712276,-0.491246 2.154859,-0.594989 z"
       id="path2879"
       sodipodi:nodetypes="ccscc"
       inkscape:connector-curvature="0" />
    <path
       style="fill:#dc0a0a;fill-opacity:1;fill-rule:evenodd;stroke:#000000;stroke-width:0.08383336px;stroke-linecap:butt;stroke-linejoin:miter;stroke-opacity:1"
       d="m 13.513038,12.966095 c -0.118062,-0.322879 0.404084,-0.266587 0.623997,-0.119721 0.389589,0.163808 0.51424,0.485733 0.463726,0.855047 0.02481,-0.344003 -0.13764,-0.662825 0.240722,-0.4057 0.306744,0.257887 0.566452,0.377385 0.419027,0.760323 -0.387387,0.193986 -0.969719,-0.106133 -1.171574,-0.222088 -0.361222,-0.184884 -0.525707,-0.519676 -0.575898,-0.867861 z"
       id="path2889"
       sodipodi:nodetypes="ccccccc"
       inkscape:connector-curvature="0" />
    <path
       style="fill:none;stroke:#000000;stroke-width:0.16766675;stroke-linecap:butt;stroke-linejoin:miter;stroke-miterlimit:4;stroke-opacity:1;stroke-dasharray:none"
       d="m 12.806948,12.912307 c 0.709474,1.836954 1.747211,1.844146 2.50796,1.688093 0.477079,-0.113268 0.761153,-0.938799 1.513993,-1.053376"
       id="path2906"
       sodipodi:nodetypes="ccs"
       inkscape:connector-curvature="0" />
    <path
       sodipodi:nodetypes="cccc"
       id="path2938"
       d="M 15.081571,9.4719417 C 14.775375,6.9381813 16.517901,7.4400933 16.48145,8.8835917 16.49085,9.2251605 16.326592,9.9218298 16.028992,10.10659 15.38757,10.281141 15.210249,9.8202892 15.081571,9.4719417 z"
       style="fill:#ffffff;fill-opacity:1;fill-rule:evenodd;stroke:#000000;stroke-width:0.12575004;stroke-linecap:butt;stroke-linejoin:miter;stroke-miterlimit:4;stroke-opacity:1;stroke-dasharray:none"
       inkscape:connector-curvature="0" />
    <path
       sodipodi:nodetypes="cccc"
       id="path3044"
       d="m 16.309311,9.6975337 c -0.151079,0.2897433 -0.221864,0.3045903 -0.46963,0.4629683 -0.499424,0.0038 -0.783174,-0.6884666 -0.773427,-0.8153043 0.213495,-0.9093366 1.137628,-0.2036892 1.243057,0.352336 z"
       style="fill:#000000;fill-opacity:1;fill-rule:evenodd;stroke:#000000;stroke-width:0.08383336px;stroke-linecap:butt;stroke-linejoin:miter;stroke-opacity:1"
       inkscape:connector-curvature="0" />
    <g
       id="g3200"
       transform="matrix(0.09045038,0,0,0.07770044,-23.884864,-8.9833618)">
      <path
         sodipodi:nodetypes="cccc"
         id="path2992"
         d="m 462.35431,242.24596 c -5.23856,-2.68946 -6.33647,-9.57718 -7.70589,-15.14677 -3.77969,-13.76879 6.25852,-19.2124 11.59293,1.99846 0.38447,4.30441 1.40154,12.18683 -3.88704,13.14831 z"
         style="fill:#ffffff;fill-opacity:1;fill-rule:evenodd;stroke:#000000;stroke-width:1.5;stroke-linecap:butt;stroke-linejoin:miter;stroke-miterlimit:4;stroke-opacity:1;stroke-dasharray:none"
         inkscape:connector-curvature="0" />
      <path
         sodipodi:nodetypes="cccc"
         id="path3188"
         d="m 466.63921,237.72934 c -0.0882,1.35399 0.0926,3.85573 -3.46359,4.01012 -5.52158,0.0508 -6.6157,-7.59276 -7.50799,-10.22518 2.61038,-6.95311 11.15954,1.5768 10.97158,6.21506 z"
         style="fill:#000000;fill-opacity:1;fill-rule:evenodd;stroke:#000000;stroke-width:1px;stroke-linecap:butt;stroke-linejoin:miter;stroke-opacity:1"
         inkscape:connector-curvature="0" />
    </g>
    <path
       style="fill:#ffffff;fill-opacity:1;fill-rule:evenodd;stroke:#000000;stroke-width:0.08383336px;stroke-linecap:butt;stroke-linejoin:miter;stroke-opacity:1"
       d="m 19.779761,8.8522962 c -0.147973,0.088915 -0.318845,0.59837 -0.158234,0.8620464 0.0896,0.1339299 0.332499,0.2066546 0.475509,0.093835 0.23642,-0.3079556 0.29245,-0.8874672 0.111672,-1.006812 -0.160152,-0.059144 -0.309931,-0.024718 -0.428948,0.050902 z"
       id="path3319"
       sodipodi:nodetypes="ccccc"
       inkscape:connector-curvature="0" />
    <path
       style="fill:#ffffff;fill-opacity:1;fill-rule:evenodd;stroke:#000000;stroke-width:0.16766675;stroke-linecap:butt;stroke-linejoin:miter;stroke-miterlimit:4;stroke-opacity:1;stroke-dasharray:none"
       d="M 6.0341395,15.122896 C 6.3203134,16.051977 2.416089,19.371402 1.6780834,18.143706 -0.11358883,18.244803 0.94444252,16.703403 0.66458402,16.996636 0.32678582,16.848591 0.11783872,16.167872 0.85453782,15.586713 1.7560306,14.875559 2.5476274,13.835251 2.9589527,12.579301 2.3603286,11.417769 2.4803531,9.5840627 4.0860417,10.107644 c 1.0773579,0.425562 0.4304774,0.840571 0.3723384,2.154822 0.4648671,0.110333 1.0551869,0.189528 1.2513137,0.876077 0.8854705,0.223102 0.9135302,0.403684 1.1131575,1.039787 0.1682268,0.931698 0.1234478,1.695901 -1.2443712,1.911719"
       id="path3381"
       sodipodi:nodetypes="cccscccccc"
       inkscape:connector-curvature="0" />
    <path
       style="fill:none;stroke:#000000;stroke-width:0.08383336px;stroke-linecap:butt;stroke-linejoin:miter;stroke-opacity:1"
       d="M 0.67503582,17.197561 C 1.1487863,16.243383 1.8766734,16.24162 2.5937843,15.302043"
       id="path3395"
       sodipodi:nodetypes="cc"
       inkscape:connector-curvature="0" />
    <path
       style="fill:none;stroke:#000000;stroke-width:0.08383336px;stroke-linecap:butt;stroke-linejoin:miter;stroke-opacity:1"
       d="M 1.7623228,18.076642 C 1.5126149,17.03952 2.6667878,17.26528 3.2973213,16.291004"
       id="path3397"
       sodipodi:nodetypes="cc"
       inkscape:connector-curvature="0" />
    <path
       style="fill:none;stroke:#000000;stroke-width:0.08383336px;stroke-linecap:butt;stroke-linejoin:miter;stroke-opacity:1"
       d="m 2.5937843,14.175727 c -0.4201054,1.400627 0.2240746,2.129185 1.2151954,2.307579"
       id="path3399"
       sodipodi:nodetypes="cc"
       inkscape:connector-curvature="0" />
    <path
       style="fill:none;stroke:#000000;stroke-width:0.16766675;stroke-linecap:butt;stroke-linejoin:miter;stroke-miterlimit:4;stroke-opacity:1;stroke-dasharray:none"
       d="m 4.6217011,12.335961 c 0.7255899,-0.13185 1.2040702,0.542017 1.0575804,1.341372"
       id="path3474"
       sodipodi:nodetypes="cc"
       inkscape:connector-curvature="0" />
    <path
       style="fill:none;stroke:#000000;stroke-width:0.16766675;stroke-linecap:round;stroke-linejoin:miter;stroke-miterlimit:4;stroke-opacity:1;stroke-dasharray:none"
       d="M 3.5828536,14.647451 C 4.1842828,13.361014 5.8052489,13.129318 5.9460884,14.304458"
       id="path3493"
       sodipodi:nodetypes="cc"
       inkscape:connector-curvature="0" />
    <path
       style="fill:#e60a0a;fill-opacity:1;fill-rule:evenodd;stroke:#000000;stroke-width:0.16766675;stroke-linecap:butt;stroke-linejoin:miter;stroke-miterlimit:4;stroke-opacity:1;stroke-dasharray:none"
       d="m 21.660656,21.329442 c -1.064711,1.091717 -3.504691,-0.371356 -4.25955,0.913201 -1.658281,-0.171423 -3.438256,-0.507185 -4.126334,0.0096 0.574575,-0.408619 1.183381,-1.66041 1.381631,-2.317397 -0.163859,-1.513303 -0.200563,-2.278192 0.395866,-3.037535 0.612259,-0.656579 0.742023,-0.544381 2.489178,-1.117954 5.272669,-0.720086 5.997324,4.053387 4.119209,5.550059 z"
       id="path3909"
       sodipodi:nodetypes="ccccccc"
       inkscape:connector-curvature="0" />
    <path
       style="fill:#edb811;fill-opacity:1;fill-rule:evenodd;stroke:#000000;stroke-width:0.16766675;stroke-linecap:butt;stroke-linejoin:miter;stroke-miterlimit:4;stroke-opacity:1;stroke-dasharray:none"
       d="m 17.900933,26.209954 c -1.015803,0.602405 -0.836167,2.15228 0.357727,2.511483 3.201749,1.540326 6.916876,0.861255 8.565901,-0.577579 1.09807,-0.968123 0.770709,-2.880096 -0.765288,-3.360669 -1.309666,-0.349415 -2.700591,0.05961 -3.87031,0.573404 -0.394416,0.14475 -1.004045,0.315657 -1.436574,0.323595"
       id="path4386"
       sodipodi:nodetypes="cccccc"
       inkscape:connector-curvature="0" />
    <path
       style="fill:#edb811;fill-opacity:1;fill-rule:evenodd;stroke:#000000;stroke-width:0.16766675;stroke-linecap:butt;stroke-linejoin:miter;stroke-miterlimit:4;stroke-opacity:1;stroke-dasharray:none"
       d="m 18.358677,26.47524 c -1.780515,-0.882569 0.782689,-2.021284 2.263457,-1.049549 0.249866,0.279772 0.227141,0.682568 -0.412443,1.026786"
       id="path4449"
       sodipodi:nodetypes="ccc"
       inkscape:connector-curvature="0" />
    <path
       style="fill:#000000;fill-opacity:1;fill-rule:evenodd;stroke:#000000;stroke-width:0.08383336px;stroke-linecap:butt;stroke-linejoin:miter;stroke-opacity:1"
       d="m 19.451843,22.915694 c -0.106527,0.375868 -0.97078,2.615263 -1.031414,2.871489 -0.101267,0.406292 1.619618,0.601025 1.647606,0.225027 0.439083,-0.963626 1.310972,-3.088776 1.08495,-3.20709 -0.259075,-0.09919 -1.491576,0.413471 -1.701142,0.110574 z"
       id="path4313"
       sodipodi:nodetypes="ccccc"
       inkscape:connector-curvature="0" />
    <path
       style="fill:#e60a0a;fill-opacity:1;fill-rule:evenodd;stroke:#000000;stroke-width:0.16766675;stroke-linecap:butt;stroke-linejoin:miter;stroke-miterlimit:4;stroke-opacity:1;stroke-dasharray:none"
       d="m 21.874857,21.014116 c 0.136735,0.398923 0.592014,1.199844 0.488212,1.509978 -0.8062,0.53099 -2.44009,0.652436 -3.386378,0.415726 0.271981,-0.359565 -0.05428,-0.940123 -0.283235,-1.18183 -0.63677,-0.02927 -0.544502,-0.0258 -1.017967,0.464809 -0.452285,-0.144117 -2.867216,-0.272941 -3.365007,-0.307994 -1.422741,0.224342 -1.140868,0.606925 -0.806183,0.886705 0.665897,0.47489 3.236415,0.445279 3.952551,0.01517 0.677634,-0.539577 -0.533543,-0.478387 0.72208,-1.715432"
       id="path3907"
       sodipodi:nodetypes="ccccccccc"
       inkscape:connector-curvature="0" />
    <path
       style="fill:none;stroke:#000000;stroke-width:0.08383336px;stroke-linecap:butt;stroke-linejoin:miter;stroke-opacity:1"
       d="m 20.377933,21.649087 c -0.777896,0.472264 -1.279126,0.109408 -1.800191,0.09453"
       id="path3542"
       sodipodi:nodetypes="cc"
       inkscape:connector-curvature="0" />
    <path
       style="fill:#ffffff;fill-opacity:1;fill-rule:evenodd;stroke:#000000;stroke-width:0.12575004;stroke-linecap:butt;stroke-linejoin:miter;stroke-miterlimit:4;stroke-opacity:1;stroke-dasharray:none"
       d="m 18.268891,18.578198 c -0.30619,-2.533759 1.43633,-2.031857 1.399878,-0.58835 0.0094,0.341569 -0.154857,1.038237 -0.452458,1.222989 -0.641412,0.174559 -0.818744,-0.2863 -0.94742,-0.634639 z"
       id="path3913"
       sodipodi:nodetypes="cccc"
       inkscape:connector-curvature="0" />
    <path
       style="fill:#ffffff;fill-opacity:1;fill-rule:evenodd;stroke:#000000;stroke-width:0.12575004;stroke-linecap:butt;stroke-linejoin:miter;stroke-miterlimit:4;stroke-opacity:1;stroke-dasharray:none"
       d="m 21.464491,19.082175 c -0.47383,-0.208971 -0.573132,-0.744151 -0.697,-1.176911 -0.341871,-1.069841 0.566087,-1.492813 1.048578,0.155276 0.03479,0.334454 0.126775,0.946923 -0.351578,1.021635 z"
       id="path3919"
       sodipodi:nodetypes="cccc"
       inkscape:connector-curvature="0" />
    <path
       style="fill:#edb811;fill-opacity:1;fill-rule:evenodd;stroke:#000000;stroke-width:0.16766675;stroke-linecap:butt;stroke-linejoin:miter;stroke-miterlimit:4;stroke-opacity:1;stroke-dasharray:none"
       d="m 9.5496861,26.395716 c -2.8406225,0.829265 -3.0508134,2.988444 -1.8645959,3.941729 1.0593552,0.885819 2.2391369,1.284773 3.6650868,1.309877 1.628849,0.02349 3.365567,-0.36022 4.532546,-1.385982 0.825812,-0.880259 0.426326,-2.376985 -0.787277,-2.835217 C 14.57,27.198083 14.01976,27.011335 13.497032,26.780778 l -0.0469,-0.01232 -0.04738,-0.01085"
       id="path4079"
       sodipodi:nodetypes="cccccccc"
       inkscape:connector-curvature="0" />
    <path
       id="path4075"
       style="fill:#edb811;fill-opacity:1;fill-rule:evenodd;stroke:#000000;stroke-width:0.16766675;stroke-linecap:butt;stroke-linejoin:miter;stroke-miterlimit:4;stroke-opacity:1;stroke-dasharray:none"
       d="m 12.549286,26.986755 c 1.331003,-0.11039 1.123412,-0.909613 0.16084,-1.043912 -0.962572,-0.134292 -1.170805,-0.207294 -1.967188,-0.128732 -0.7963719,0.07857 -1.3056459,0.256862 -1.3056459,0.723674 0,0.280311 0.7271509,0.471725 0.9735619,0.471725"
       sodipodi:nodetypes="cccsc"
       inkscape:connector-curvature="0" />
    <path
       style="fill:#000000;fill-opacity:1;fill-rule:evenodd;stroke:#000000;stroke-width:0.08383336px;stroke-linecap:butt;stroke-linejoin:miter;stroke-opacity:1"
       d="m 13.210818,22.417102 c -0.796064,0.899224 -2.321389,3.093572 -2.603957,3.621605 0.337862,0.520555 1.519674,0.672073 1.915127,0.182367 1.040218,-1.606799 1.810935,-2.575607 3.107977,-4.234069 -1.077595,-0.369946 -2.28924,0.122094 -2.419147,0.430097 z"
       id="path3925"
       sodipodi:nodetypes="ccccc"
       inkscape:connector-curvature="0" />
    <path
       style="fill:none;stroke:#000000;stroke-width:0.08383336px;stroke-linecap:butt;stroke-linejoin:miter;stroke-opacity:1"
       d="M 9.6831961,28.005071 C 10.558533,27.409342 12.523819,27.258834 13.708237,27.538875"
       id="path4231"
       sodipodi:nodetypes="cc"
       inkscape:connector-curvature="0" />
    <path
       style="fill:none;stroke:#000000;stroke-width:0.16766675;stroke-linecap:butt;stroke-linejoin:miter;stroke-miterlimit:4;stroke-opacity:1;stroke-dasharray:none"
       d="m 14.655356,19.230435 c -2.800994,1.390848 -4.339463,4.179917 -7.4186595,5.220449 -0.8972694,0.284229 -1.6102921,0.396866 -3.1344185,0.05406"
       id="path5483"
       sodipodi:nodetypes="ccc"
       inkscape:connector-curvature="0" />
    <path
       style="fill:none;stroke:#000000;stroke-width:0.16766675;stroke-linecap:round;stroke-linejoin:miter;stroke-miterlimit:4;stroke-opacity:1;stroke-dasharray:none"
       d="m 14.64599,19.371572 c -2.800993,1.390849 -4.330097,4.097504 -7.4092935,5.138037 -0.8972694,0.28423 -1.6102921,0.3483 -3.1344185,0.0053"
       id="path6387"
       sodipodi:nodetypes="ccc"
       inkscape:connector-curvature="0" />
  </g>
</svg>
