<?xml version="1.0" encoding="UTF-8" standalone="no"?>
<!-- Created with Inkscape (http://www.inkscape.org/) -->

<svg
   xmlns:dc="http://purl.org/dc/elements/1.1/"
   xmlns:cc="http://creativecommons.org/ns#"
   xmlns:rdf="http://www.w3.org/1999/02/22-rdf-syntax-ns#"
   xmlns:svg="http://www.w3.org/2000/svg"
   xmlns="http://www.w3.org/2000/svg"
   xmlns:xlink="http://www.w3.org/1999/xlink"
   xmlns:sodipodi="http://sodipodi.sourceforge.net/DTD/sodipodi-0.dtd"
   xmlns:inkscape="http://www.inkscape.org/namespaces/inkscape"
   width="36"
   height="36"
   id="svg2987"
   version="1.1"
   inkscape:version="0.48.4 r9939"
   sodipodi:docname="pic-default-32.svg">
  <defs
     id="defs2989">
    <linearGradient
       id="linearGradient3939">
      <stop
         style="stop-color:#c1a3fe;stop-opacity:1;"
         offset="0"
         id="stop3941" />
      <stop
         style="stop-color:#c1a3fe;stop-opacity:0;"
         offset="1"
         id="stop3943" />
    </linearGradient>
    <clipPath
       clipPathUnits="userSpaceOnUse"
       id="clipPath3871">
      <path
         style="fill:#f07eff;fill-opacity:0.80784314;stroke-width:0.1;stroke-miterlimit:4;stroke-dashoffset:0"
         d="m 8.1655088,38.383062 c 0.5437842,-5.482253 6.6446902,-9.639507 13.6267562,-9.285487 6.982065,0.35402 12.201323,5.085254 11.657538,10.567506 -0.543784,5.482253 -6.64469,9.639507 -13.626755,9.285487 C 12.840982,48.596548 7.6217245,43.865315 8.1655088,38.383062 z"
         id="path3873"
         inkscape:connector-curvature="0" />
    </clipPath>
    <clipPath
       clipPathUnits="userSpaceOnUse"
       id="clipPath3875">
      <path
         style="fill:#f07eff;fill-opacity:0.80784314;stroke-width:0.1;stroke-miterlimit:4;stroke-dashoffset:0"
         d="M 38.838669,27.273646 C 37.974741,38.613136 28.282034,47.212 17.189401,46.479746 6.0967689,45.747491 -2.1952346,35.961408 -1.3313069,24.621918 -0.46737939,13.282429 9.2253276,4.6835653 20.31796,5.4158198 31.410593,6.1480743 39.702596,15.934157 38.838669,27.273646 z"
         id="path3877"
         inkscape:connector-curvature="0" />
    </clipPath>
    <clipPath
       clipPathUnits="userSpaceOnUse"
       id="clipPath3973">
      <path
         style="fill:#c1a3fe;fill-opacity:0.53424659;stroke-width:0.1;stroke-miterlimit:4;stroke-dashoffset:0"
         d="m 26.749877,14.410072 c 0,3.888461 -4.364613,7.040681 -9.748635,7.040681 -5.384023,0 -9.7486356,-3.15222 -9.7486356,-7.040681 0,-3.88846 4.3646126,-7.0406806 9.7486356,-7.0406806 5.384022,0 9.748635,3.1522206 9.748635,7.0406806 z"
         id="path3975"
         inkscape:connector-curvature="0" />
    </clipPath>
    <clipPath
       clipPathUnits="userSpaceOnUse"
       id="clipPath3977">
      <path
         style="fill:#c1a3fe;fill-opacity:0.53424659;stroke-width:0.1;stroke-miterlimit:4;stroke-dashoffset:0"
         d="m 11.145894,42.378428 c 0,-4.735813 4.325718,-8.574947 9.661761,-8.574947 5.336043,0 9.661761,3.839134 9.661761,8.574947 0,4.735811 -4.325718,8.574945 -9.661761,8.574945 -5.336043,0 -9.661761,-3.839134 -9.661761,-8.574945 z"
         id="path3979"
         inkscape:connector-curvature="0" />
    </clipPath>
    <clipPath
       clipPathUnits="userSpaceOnUse"
       id="clipPath3981">
      <path
         style="fill:#c1a3fe;fill-opacity:0.53424659;stroke-width:0.1;stroke-miterlimit:4;stroke-dashoffset:0"
         d="m 38.900494,21.223912 c 0,11.363518 -9.020036,20.575468 -20.146811,20.575468 -11.1267775,0 -20.1468119,-9.21195 -20.1468119,-20.575468 0,-11.3635143 9.0200344,-20.57546583 20.1468119,-20.57546583 11.126775,0 20.146811,9.21195153 20.146811,20.57546583 z"
         id="path3983"
         inkscape:connector-curvature="0" />
    </clipPath>
    <clipPath
       clipPathUnits="userSpaceOnUse"
       id="clipPath3973-9">
      <path
         style="fill:#c1a3fe;fill-opacity:0.53424659;stroke-width:0.1;stroke-miterlimit:4;stroke-dashoffset:0"
         d="m 26.749877,14.410072 c 0,3.888461 -4.364613,7.040681 -9.748635,7.040681 -5.384023,0 -9.7486356,-3.15222 -9.7486356,-7.040681 0,-3.88846 4.3646126,-7.0406806 9.7486356,-7.0406806 5.384022,0 9.748635,3.1522206 9.748635,7.0406806 z"
         id="path3975-3"
         inkscape:connector-curvature="0" />
    </clipPath>
    <clipPath
       clipPathUnits="userSpaceOnUse"
       id="clipPath3981-2">
      <path
         style="fill:#c1a3fe;fill-opacity:0.53424659;stroke-width:0.1;stroke-miterlimit:4;stroke-dashoffset:0"
         d="m 38.900494,21.223912 c 0,11.363518 -9.020036,20.575468 -20.146811,20.575468 -11.1267775,0 -20.1468119,-9.21195 -20.1468119,-20.575468 0,-11.3635143 9.0200344,-20.57546583 20.1468119,-20.57546583 11.126775,0 20.146811,9.21195153 20.146811,20.57546583 z"
         id="path3983-6"
         inkscape:connector-curvature="0" />
    </clipPath>
    <clipPath
       clipPathUnits="userSpaceOnUse"
       id="clipPath3081">
      <path
         inkscape:connector-curvature="0"
         id="path3083"
         d="m 37.582128,18.277975 c -0.06611,4.418278 -8.005232,8 -17.732526,8 -9.727295,0 -17.5592327,-3.581722 -17.4931233,-8 0.066109,-4.418277 8.0052313,-8 17.7325273,-8 9.727293,0 17.559232,3.581723 17.493122,8 z"
         style="fill:#c1a3fe;fill-opacity:0.53424659;stroke-width:0.1;stroke-miterlimit:4;stroke-dashoffset:0" />
    </clipPath>
    <clipPath
       clipPathUnits="userSpaceOnUse"
       id="clipPath3085">
      <path
         inkscape:connector-curvature="0"
         id="path3087"
         d="m 32.000001,16 c 0,8.836556 -7.163445,16 -16,16 C 7.163444,32 0,24.836556 0,16 0,7.163446 7.163444,7.4999999e-7 16.000001,7.4999999e-7 c 8.836555,0 16,7.16344525000001 16,15.99999925000001 z"
         style="fill:#c1a3fe;fill-opacity:0.53424659;stroke-width:0.1;stroke-miterlimit:4;stroke-dashoffset:0" />
    </clipPath>
    <clipPath
       clipPathUnits="userSpaceOnUse"
       id="clipPath3089">
      <path
         inkscape:connector-curvature="0"
         id="path3091"
         d="m 32.000001,16 c 0,8.836556 -7.163445,16 -16,16 C 7.163444,32 0,24.836556 0,16 0,7.163446 7.163444,7.4999999e-7 16.000001,7.4999999e-7 c 8.836555,0 16,7.16344525000001 16,15.99999925000001 z"
         style="fill:#c1a3fe;fill-opacity:0.53424659;stroke-width:0.1;stroke-miterlimit:4;stroke-dashoffset:0" />
    </clipPath>
    <clipPath
       clipPathUnits="userSpaceOnUse"
       id="clipPath3106">
      <path
         transform="matrix(0.90842898,0,0.01359256,2,-2.389138,-20.55595)"
         style="fill:#008000;fill-opacity:0.80784314;stroke-width:0.1;stroke-miterlimit:4;stroke-dashoffset:0"
         d="m 31.741931,40.382885 c 0,13.264982 -5.418867,24.018375 -12.103377,24.018375 -6.684511,0 -12.1033777,-10.753393 -12.1033777,-24.018375 0,-13.264982 5.4188667,-24.018375 12.1033777,-24.018375 6.68451,0 12.103377,10.753393 12.103377,24.018375 z"
         id="path3108"
         clip-path="url(#clipPath3081)"
         inkscape:connector-curvature="0" />
    </clipPath>
    <linearGradient
       inkscape:collect="always"
       xlink:href="#linearGradient3939"
       id="linearGradient3931"
       x1="-18.741177"
       y1="31.304964"
       x2="-21.340818"
       y2="42.794289"
       gradientUnits="userSpaceOnUse" />
    <linearGradient
       inkscape:collect="always"
       xlink:href="#linearGradient3939"
       id="linearGradient3013"
       gradientUnits="userSpaceOnUse"
       x1="-18.741177"
       y1="31.304964"
       x2="-21.340818"
       y2="42.794289" />
    <linearGradient
       inkscape:collect="always"
       xlink:href="#linearGradient3939"
       id="linearGradient3017"
       gradientUnits="userSpaceOnUse"
       x1="-18.741177"
       y1="31.304964"
       x2="-21.340818"
       y2="42.794289" />
  </defs>
  <sodipodi:namedview
     id="base"
     pagecolor="#ffffff"
     bordercolor="#666666"
     borderopacity="1.0"
     inkscape:pageopacity="0.0"
     inkscape:pageshadow="2"
     inkscape:zoom="10.616871"
     inkscape:cx="14.28107"
     inkscape:cy="6.9204884"
     inkscape:current-layer="layer1"
     showgrid="true"
     inkscape:grid-bbox="true"
     inkscape:document-units="px"
     inkscape:window-width="1920"
     inkscape:window-height="1025"
     inkscape:window-x="0"
     inkscape:window-y="27"
     inkscape:window-maximized="1" />
  <metadata
     id="metadata2992">
    <rdf:RDF>
      <cc:Work
         rdf:about="">
        <dc:format>image/svg+xml</dc:format>
        <dc:type
           rdf:resource="http://purl.org/dc/dcmitype/StillImage" />
        <dc:title></dc:title>
      </cc:Work>
    </rdf:RDF>
  </metadata>
  <g
     inkscape:groupmode="layer"
     id="layer2"
     inkscape:label="Layer 2"
     transform="translate(0,4)" />
  <g
     id="layer1"
     inkscape:label="Layer 1"
     inkscape:groupmode="layer"
     transform="translate(0,4)">
    <path
       style="fill:#c1a3fe;fill-opacity:1;stroke-width:0.1;stroke-miterlimit:4;stroke-dasharray:none;stroke-dashoffset:0"
       d="m 13.953948,10.447368 c -2.922854,0.414 -5.1710537,2.919796 -5.1710537,5.960527 l 0,6.43421 c 0,3.332158 2.6678427,6 6.0000007,6 l 6.947368,0 c 3.332158,0 6.000001,-2.667842 6.000001,-6 l 0,-6.43421 c 0,-3.040731 -2.248199,-5.546527 -5.171053,-5.960527 -1.130301,1.063395 -2.628265,1.736843 -4.302632,1.736843 -1.674366,0 -3.172331,-0.673448 -4.302631,-1.736843 z"
       id="rect3027"
       inkscape:connector-curvature="0" />
    <path
       transform="matrix(1.1035666,0,0,1.7527248,2.3270664,-8.6248373)"
       sodipodi:open="true"
       sodipodi:end="8.916703"
       sodipodi:start="2.63512"
       d="m 9.4308853,9.4231894 a 5.7220249,3.6027565 0 1 1 0.00445,0.00505"
       sodipodi:ry="3.6027565"
       sodipodi:rx="5.7220249"
       sodipodi:cy="7.6755075"
       sodipodi:cx="14.434573"
       id="path3824-1-7-0"
       style="fill:#c1a3fe;fill-opacity:1;stroke:#000000;stroke-width:0;stroke-miterlimit:4;stroke-opacity:1;stroke-dasharray:none;stroke-dashoffset:0"
       sodipodi:type="arc" />
  </g>
</svg>
