<?xml version="1.0" encoding="UTF-8" standalone="no"?>
<!-- Created with Inkscape (http://www.inkscape.org/) -->

<svg
   xmlns:dc="http://purl.org/dc/elements/1.1/"
   xmlns:cc="http://creativecommons.org/ns#"
   xmlns:rdf="http://www.w3.org/1999/02/22-rdf-syntax-ns#"
   xmlns:svg="http://www.w3.org/2000/svg"
   xmlns="http://www.w3.org/2000/svg"
   xmlns:xlink="http://www.w3.org/1999/xlink"
   xmlns:sodipodi="http://sodipodi.sourceforge.net/DTD/sodipodi-0.dtd"
   xmlns:inkscape="http://www.inkscape.org/namespaces/inkscape"
   width="32px"
   height="32px"
   id="svg2987"
   version="1.1"
   inkscape:version="0.48.4 r9939"
   sodipodi:docname="default-32.svg">
  <defs
     id="defs2989">
    <linearGradient
       inkscape:collect="always"
       id="linearGradient3939">
      <stop
         style="stop-color:#c1a3fe;stop-opacity:1;"
         offset="0"
         id="stop3941" />
      <stop
         style="stop-color:#c1a3fe;stop-opacity:0;"
         offset="1"
         id="stop3943" />
    </linearGradient>
    <clipPath
       clipPathUnits="userSpaceOnUse"
       id="clipPath3871">
      <path
         style="fill:#f07eff;fill-opacity:0.80784314;stroke-width:0.1;stroke-miterlimit:4;stroke-dashoffset:0"
         d="m 8.1655088,38.383062 c 0.5437842,-5.482253 6.6446902,-9.639507 13.6267562,-9.285487 6.982065,0.35402 12.201323,5.085254 11.657538,10.567506 -0.543784,5.482253 -6.64469,9.639507 -13.626755,9.285487 C 12.840982,48.596548 7.6217245,43.865315 8.1655088,38.383062 z"
         id="path3873"
         inkscape:connector-curvature="0" />
    </clipPath>
    <clipPath
       clipPathUnits="userSpaceOnUse"
       id="clipPath3875">
      <path
         style="fill:#f07eff;fill-opacity:0.80784314;stroke-width:0.1;stroke-miterlimit:4;stroke-dashoffset:0"
         d="M 38.838669,27.273646 C 37.974741,38.613136 28.282034,47.212 17.189401,46.479746 6.0967689,45.747491 -2.1952346,35.961408 -1.3313069,24.621918 -0.46737939,13.282429 9.2253276,4.6835653 20.31796,5.4158198 31.410593,6.1480743 39.702596,15.934157 38.838669,27.273646 z"
         id="path3877"
         inkscape:connector-curvature="0" />
    </clipPath>
    <clipPath
       clipPathUnits="userSpaceOnUse"
       id="clipPath3973">
      <path
         style="fill:#c1a3fe;fill-opacity:0.53424659;stroke-width:0.1;stroke-miterlimit:4;stroke-dashoffset:0"
         d="m 26.749877,14.410072 c 0,3.888461 -4.364613,7.040681 -9.748635,7.040681 -5.384023,0 -9.7486356,-3.15222 -9.7486356,-7.040681 0,-3.88846 4.3646126,-7.0406806 9.7486356,-7.0406806 5.384022,0 9.748635,3.1522206 9.748635,7.0406806 z"
         id="path3975"
         inkscape:connector-curvature="0" />
    </clipPath>
    <clipPath
       clipPathUnits="userSpaceOnUse"
       id="clipPath3977">
      <path
         style="fill:#c1a3fe;fill-opacity:0.53424659;stroke-width:0.1;stroke-miterlimit:4;stroke-dashoffset:0"
         d="m 11.145894,42.378428 c 0,-4.735813 4.325718,-8.574947 9.661761,-8.574947 5.336043,0 9.661761,3.839134 9.661761,8.574947 0,4.735811 -4.325718,8.574945 -9.661761,8.574945 -5.336043,0 -9.661761,-3.839134 -9.661761,-8.574945 z"
         id="path3979"
         inkscape:connector-curvature="0" />
    </clipPath>
    <clipPath
       clipPathUnits="userSpaceOnUse"
       id="clipPath3981">
      <path
         style="fill:#c1a3fe;fill-opacity:0.53424659;stroke-width:0.1;stroke-miterlimit:4;stroke-dashoffset:0"
         d="m 38.900494,21.223912 c 0,11.363518 -9.020036,20.575468 -20.146811,20.575468 -11.1267775,0 -20.1468119,-9.21195 -20.1468119,-20.575468 0,-11.3635143 9.0200344,-20.57546583 20.1468119,-20.57546583 11.126775,0 20.146811,9.21195153 20.146811,20.57546583 z"
         id="path3983"
         inkscape:connector-curvature="0" />
    </clipPath>
    <clipPath
       clipPathUnits="userSpaceOnUse"
       id="clipPath3973-9">
      <path
         style="fill:#c1a3fe;fill-opacity:0.53424659;stroke-width:0.1;stroke-miterlimit:4;stroke-dashoffset:0"
         d="m 26.749877,14.410072 c 0,3.888461 -4.364613,7.040681 -9.748635,7.040681 -5.384023,0 -9.7486356,-3.15222 -9.7486356,-7.040681 0,-3.88846 4.3646126,-7.0406806 9.7486356,-7.0406806 5.384022,0 9.748635,3.1522206 9.748635,7.0406806 z"
         id="path3975-3"
         inkscape:connector-curvature="0" />
    </clipPath>
    <clipPath
       clipPathUnits="userSpaceOnUse"
       id="clipPath3981-2">
      <path
         style="fill:#c1a3fe;fill-opacity:0.53424659;stroke-width:0.1;stroke-miterlimit:4;stroke-dashoffset:0"
         d="m 38.900494,21.223912 c 0,11.363518 -9.020036,20.575468 -20.146811,20.575468 -11.1267775,0 -20.1468119,-9.21195 -20.1468119,-20.575468 0,-11.3635143 9.0200344,-20.57546583 20.1468119,-20.57546583 11.126775,0 20.146811,9.21195153 20.146811,20.57546583 z"
         id="path3983-6"
         inkscape:connector-curvature="0" />
    </clipPath>
    <clipPath
       clipPathUnits="userSpaceOnUse"
       id="clipPath3081">
      <path
         inkscape:connector-curvature="0"
         id="path3083"
         d="m 37.582128,18.277975 c -0.06611,4.418278 -8.005232,8 -17.732526,8 -9.727295,0 -17.5592327,-3.581722 -17.4931233,-8 0.066109,-4.418277 8.0052313,-8 17.7325273,-8 9.727293,0 17.559232,3.581723 17.493122,8 z"
         style="fill:#c1a3fe;fill-opacity:0.53424659;stroke-width:0.1;stroke-miterlimit:4;stroke-dashoffset:0" />
    </clipPath>
    <clipPath
       clipPathUnits="userSpaceOnUse"
       id="clipPath3085">
      <path
         inkscape:connector-curvature="0"
         id="path3087"
         d="m 32.000001,16 c 0,8.836556 -7.163445,16 -16,16 C 7.163444,32 0,24.836556 0,16 0,7.163446 7.163444,7.4999999e-7 16.000001,7.4999999e-7 c 8.836555,0 16,7.16344525000001 16,15.99999925000001 z"
         style="fill:#c1a3fe;fill-opacity:0.53424659;stroke-width:0.1;stroke-miterlimit:4;stroke-dashoffset:0" />
    </clipPath>
    <clipPath
       clipPathUnits="userSpaceOnUse"
       id="clipPath3089">
      <path
         inkscape:connector-curvature="0"
         id="path3091"
         d="m 32.000001,16 c 0,8.836556 -7.163445,16 -16,16 C 7.163444,32 0,24.836556 0,16 0,7.163446 7.163444,7.4999999e-7 16.000001,7.4999999e-7 c 8.836555,0 16,7.16344525000001 16,15.99999925000001 z"
         style="fill:#c1a3fe;fill-opacity:0.53424659;stroke-width:0.1;stroke-miterlimit:4;stroke-dashoffset:0" />
    </clipPath>
    <clipPath
       clipPathUnits="userSpaceOnUse"
       id="clipPath3106">
      <path
         transform="matrix(0.90842898,0,0.01359256,2,-2.389138,-20.55595)"
         style="fill:#008000;fill-opacity:0.80784314;stroke-width:0.1;stroke-miterlimit:4;stroke-dashoffset:0"
         d="m 31.741931,40.382885 c 0,13.264982 -5.418867,24.018375 -12.103377,24.018375 -6.684511,0 -12.1033777,-10.753393 -12.1033777,-24.018375 0,-13.264982 5.4188667,-24.018375 12.1033777,-24.018375 6.68451,0 12.103377,10.753393 12.103377,24.018375 z"
         id="path3108"
         clip-path="url(#clipPath3081)"
         inkscape:connector-curvature="0" />
    </clipPath>
    <linearGradient
       inkscape:collect="always"
       xlink:href="#linearGradient3939"
       id="linearGradient3931"
       x1="-18.741177"
       y1="31.304964"
       x2="-21.340818"
       y2="42.794289"
       gradientUnits="userSpaceOnUse" />
  </defs>
  <sodipodi:namedview
     id="base"
     pagecolor="#ffffff"
     bordercolor="#666666"
     borderopacity="1.0"
     inkscape:pageopacity="0.0"
     inkscape:pageshadow="2"
     inkscape:zoom="15.014523"
     inkscape:cx="29.406882"
     inkscape:cy="12.399926"
     inkscape:current-layer="layer1"
     showgrid="true"
     inkscape:grid-bbox="true"
     inkscape:document-units="px"
     inkscape:window-width="1920"
     inkscape:window-height="1025"
     inkscape:window-x="0"
     inkscape:window-y="27"
     inkscape:window-maximized="1" />
  <metadata
     id="metadata2992">
    <rdf:RDF>
      <cc:Work
         rdf:about="">
        <dc:format>image/svg+xml</dc:format>
        <dc:type
           rdf:resource="http://purl.org/dc/dcmitype/StillImage" />
        <dc:title></dc:title>
      </cc:Work>
    </rdf:RDF>
  </metadata>
  <g
     inkscape:groupmode="layer"
     id="layer2"
     inkscape:label="Layer 2" />
  <g
     id="layer1"
     inkscape:label="Layer 1"
     inkscape:groupmode="layer">
    <path
       clip-path="url(#clipPath3085)"
       inkscape:connector-curvature="0"
       id="path3093"
       d="m 32.000001,16 c 0,8.836556 -7.163445,16 -16,16 C 7.163444,32 0,24.836556 0,16 0,7.163446 7.163444,7.4999999e-7 16.000001,7.4999999e-7 c 8.836555,0 16,7.16344525000001 16,15.99999925000001 z"
       style="fill:#e6e6e6;fill-opacity:0.53424659;stroke-width:0.1;stroke-miterlimit:4;stroke-dashoffset:0"
       transform="translate(41.937391,0.4991103)" />
    <g
       id="g3921"
       style="fill-opacity:0;fill:#c1a3fe">
      <path
         transform="translate(1.1295029e-7,-0.51804344)"
         clip-path="url(#clipPath3089)"
         inkscape:connector-curvature="0"
         id="path3016"
         d="m 20.623241,9.0470954 c 0,2.7614236 -2.238576,4.9999996 -5,4.9999996 -2.761424,0 -5,-2.238576 -5,-4.9999996 0,-2.7614239 2.238576,-5.0000002 5,-5.0000002 2.761424,0 5,2.2385763 5,5.0000002 z"
         style="fill:url(#linearGradient3931);fill-opacity:1.0" />
      <path
         id="path3879"
         d="M 16,0 C 7.163443,0 0,7.163446 0,16 0,24.836556 7.163443,32 16,32 24.836555,32 32,24.836556 32,16 32,7.163446 24.836555,0 16,0 z m -0.875,4.0625 c 0.168085,-0.01707 0.327411,0 0.5,0 2.761424,0 5,2.2385761 5,5 0,2.761424 -2.238576,5 -5,5 -2.761424,0 -5,-2.238576 -5,-5 0,-2.5888349 1.978719,-4.74395 4.5,-5 z"
         clip-path="url(#clipPath3106)"
         style="fill:url(#linearGradient3931);fill-opacity:1.0;stroke-width:0.10000000000000001;stroke-miterlimit:4;stroke-dashoffset:0"
         inkscape:connector-curvature="0" />
    </g>
  </g>
</svg>
